<?xml version="1.0" standalone="no"?>
<!DOCTYPE svg PUBLIC "-//W3C//DTD SVG 20010904//EN"
 "http://www.w3.org/TR/2001/REC-SVG-20010904/DTD/svg10.dtd">
<svg version="1.0" xmlns="http://www.w3.org/2000/svg"
 width="714.000000pt" height="661.000000pt" viewBox="0 0 714.000000 661.000000"
 preserveAspectRatio="xMidYMid meet">

<g transform="translate(0.000000,661.000000) scale(0.100000,-0.100000)"
fill="#000000" stroke="none">
<path d="M3157 5966 l-79 -21 7 -151 7 -150 -49 -32 c-57 -37 -158 -139 -192
-194 l-23 -38 -154 0 -153 0 -16 -57 c-9 -32 -20 -71 -25 -86 -8 -25 -6 -30
18 -43 15 -9 74 -41 132 -72 l105 -57 7 -73 c7 -64 39 -174 78 -268 13 -30 11
-35 -65 -158 l-78 -128 64 -64 64 -63 128 79 129 80 69 -30 c70 -31 149 -52
249 -67 l55 -8 65 -122 c36 -67 68 -125 72 -128 4 -4 46 3 94 16 l86 23 -6
145 c-4 80 -3 151 1 157 4 6 26 23 48 37 57 38 151 134 183 185 l27 44 153 -4
153 -3 10 40 c6 22 17 61 24 87 l14 47 -133 72 -133 72 -7 74 c-5 66 -36 173
-76 269 -13 30 -11 35 64 154 l76 124 -62 63 c-34 35 -65 63 -68 63 -4 0 -62
-34 -129 -76 l-123 -76 -66 30 c-82 37 -131 51 -228 62 -42 4 -77 10 -78 11
-2 2 -33 61 -70 132 -37 70 -73 126 -79 126 -7 -1 -47 -11 -90 -23z m-143
-768 c7 -13 29 -62 47 -110 19 -49 36 -88 40 -88 3 0 25 48 50 108 44 107 44
107 79 107 l35 0 3 -144 c3 -146 -2 -167 -34 -154 -10 4 -14 36 -16 120 l-3
116 -44 -109 c-48 -118 -60 -138 -82 -129 -8 3 -35 61 -61 128 l-47 122 -1
-121 c0 -95 -3 -123 -14 -127 -8 -3 -17 -3 -20 0 -3 4 -6 73 -6 155 l0 148 30
0 c20 0 34 -7 44 -22z m834 -30 c3 -21 9 -27 30 -30 36 -4 36 -32 -1 -36 l-28
-3 3 -72 c3 -66 5 -72 25 -72 30 -1 38 -11 23 -30 -17 -21 -56 -19 -80 5 -16
16 -20 33 -20 94 0 65 -2 74 -20 79 -11 3 -20 10 -20 17 0 7 9 14 20 17 14 4
20 14 20 35 0 25 4 29 23 26 15 -2 23 -11 25 -30z m-361 -51 c12 -12 23 -38
25 -57 l3 -35 -72 -3 c-64 -3 -73 -5 -73 -22 0 -10 8 -26 17 -35 15 -16 48
-17 102 -4 8 2 16 -3 18 -12 3 -11 -6 -20 -28 -28 -44 -15 -74 -14 -110 4 -35
19 -49 50 -49 109 0 98 103 149 167 83z m230 0 c12 -12 23 -38 25 -57 l3 -35
-72 -3 c-64 -3 -73 -5 -73 -22 0 -10 8 -26 17 -35 15 -16 48 -17 102 -4 8 2
16 -3 18 -12 3 -11 -6 -20 -28 -28 -44 -15 -74 -14 -110 4 -35 19 -49 50 -49
109 0 98 103 149 167 83z"/>
<path d="M3386 5094 c-31 -30 -20 -44 34 -44 37 0 50 4 50 14 0 20 -28 46 -50
46 -10 0 -26 -7 -34 -16z"/>
<path d="M3616 5094 c-31 -30 -20 -44 34 -44 37 0 50 4 50 14 0 20 -28 46 -50
46 -10 0 -26 -7 -34 -16z"/>
<path d="M2207 4583 c-3 -5 -19 -72 -38 -150 l-33 -143 -62 -20 c-72 -24 -156
-73 -225 -131 l-49 -41 -137 41 c-76 23 -143 41 -149 41 -7 0 -32 -36 -57 -79
l-45 -80 110 -102 110 -103 -6 -45 c-16 -119 -18 -178 -6 -260 l12 -88 -95
-93 c-53 -51 -103 -97 -111 -104 -12 -9 -8 -22 29 -86 25 -41 46 -79 47 -83 2
-4 47 6 100 22 53 16 119 36 146 45 l51 15 63 -51 c54 -44 149 -95 249 -136
24 -9 29 -23 58 -144 17 -73 31 -139 31 -145 0 -10 26 -13 99 -13 l99 0 22 98
c12 53 27 119 34 147 l12 50 72 26 c78 29 153 74 219 131 l43 37 47 -14 c27
-8 93 -28 148 -44 54 -17 100 -29 101 -28 2 1 23 38 48 82 l45 79 -111 106
-112 106 12 59 c15 75 15 180 0 262 l-12 65 112 107 112 106 -47 81 -48 81
-147 -45 -148 -44 -44 39 c-59 51 -143 101 -216 127 -33 12 -64 26 -69 31 -5
6 -24 74 -42 153 l-33 142 -92 0 c-51 0 -95 -3 -97 -7z m-28 -809 c32 -23 51
-73 51 -136 0 -123 -98 -192 -200 -140 -87 43 -96 207 -15 270 35 28 128 31
164 6z m465 -60 c9 -3 16 -15 16 -25 0 -14 -7 -19 -30 -19 -39 0 -50 -23 -50
-109 0 -69 -8 -84 -37 -73 -9 3 -13 35 -13 113 0 102 1 109 20 109 11 0 20 -5
20 -11 0 -5 10 -3 22 5 25 18 30 19 52 10z m-312 -90 c3 -101 17 -120 62 -91
24 16 26 22 26 97 0 79 0 80 25 80 l25 0 0 -109 c0 -87 -3 -110 -15 -115 -8
-3 -20 1 -28 8 -11 11 -16 11 -32 0 -28 -21 -63 -17 -90 11 -23 22 -25 32 -25
115 0 89 0 90 25 90 24 0 24 -2 27 -86z"/>
<path d="M2040 3732 c-28 -23 -39 -115 -20 -162 23 -56 107 -61 144 -8 24 34
21 128 -5 162 -25 32 -84 36 -119 8z"/>
<path d="M4189 3803 l-24 -137 -80 -17 c-94 -20 -192 -56 -291 -106 l-71 -36
-102 84 c-56 46 -105 85 -109 87 -4 1 -40 -25 -80 -58 l-71 -60 69 -120 70
-120 -61 -82 c-34 -46 -84 -130 -111 -188 -28 -58 -53 -112 -58 -120 -6 -12
-35 -16 -146 -18 l-140 -3 -15 -92 c-12 -66 -13 -94 -5 -99 6 -4 64 -26 129
-50 134 -48 123 -33 131 -183 3 -63 15 -136 32 -195 14 -52 28 -104 31 -115 4
-17 -18 -39 -101 -108 l-105 -87 49 -83 c27 -45 53 -81 57 -80 4 1 63 21 130
45 l122 43 83 -82 c96 -95 139 -130 220 -179 32 -20 58 -41 58 -47 0 -7 -11
-69 -23 -139 l-23 -127 25 -10 c14 -6 55 -21 91 -34 l66 -25 68 120 68 120 82
-9 c90 -9 200 -10 319 -3 l79 5 64 -110 c35 -60 68 -111 73 -113 10 -3 146 43
168 56 8 5 6 35 -8 112 -10 58 -21 119 -24 136 -5 29 -2 34 42 60 77 44 163
113 239 191 39 40 77 73 85 73 8 0 63 -18 122 -40 60 -22 114 -40 122 -40 7 0
25 21 40 48 15 26 36 61 47 79 l19 31 -103 88 c-73 62 -103 93 -102 108 1 12
13 61 28 111 17 56 31 137 38 215 l11 126 126 46 c143 52 133 36 110 171 l-11
67 -139 0 -139 0 -12 28 c-39 97 -116 238 -163 299 -30 40 -55 78 -55 84 0 6
30 63 66 126 37 63 65 115 63 116 -2 2 -31 26 -64 53 -33 28 -66 54 -73 58 -8
5 -47 -22 -109 -74 -53 -45 -102 -84 -108 -86 -7 -3 -52 15 -101 40 -90 45
-215 88 -291 101 -49 8 -58 17 -66 65 -3 19 -13 77 -23 128 l-16 92 -97 0 -97
0 -25 -137z m-179 -1043 c0 -17 -7 -20 -45 -20 l-45 0 0 -129 c0 -95 -3 -131
-12 -134 -34 -11 -38 4 -38 134 l0 129 -45 0 c-38 0 -45 3 -45 20 0 19 7 20
115 20 108 0 115 -1 115 -20z m147 -83 c12 -12 23 -38 25 -57 l3 -35 -72 -3
c-64 -3 -73 -5 -73 -22 0 -10 8 -26 17 -35 15 -16 48 -17 102 -4 8 2 16 -3 18
-12 3 -11 -6 -20 -28 -28 -44 -15 -74 -14 -110 4 -35 19 -49 50 -49 109 0 98
103 149 167 83z m192 22 c38 -13 43 -30 39 -139 -2 -70 -6 -84 -18 -81 -8 2
-22 3 -30 1 -57 -8 -93 -3 -106 15 -38 52 4 115 78 115 35 0 39 3 36 21 -5 35
-31 45 -73 30 -20 -7 -39 -10 -43 -6 -11 10 13 39 39 46 36 10 43 10 78 -2z
m270 -14 c13 -13 17 -13 30 -1 31 28 66 29 96 3 26 -22 29 -31 33 -112 3 -64
1 -89 -8 -95 -30 -19 -40 1 -40 80 0 87 -15 118 -49 101 -33 -18 -40 -37 -43
-111 -2 -59 -6 -75 -18 -75 -12 0 -16 18 -20 83 -7 100 -23 125 -64 98 -24
-15 -26 -22 -26 -95 0 -79 -7 -95 -37 -83 -9 3 -13 35 -13 113 0 102 1 109 20
109 11 0 20 -5 20 -10 0 -6 12 -4 28 5 30 16 69 12 91 -10z"/>
<path d="M4056 2654 c-31 -30 -20 -44 34 -44 37 0 50 4 50 14 0 20 -28 46 -50
46 -10 0 -26 -7 -34 -16z"/>
<path d="M4288 2573 c-24 -6 -31 -34 -14 -52 24 -23 70 -4 74 32 3 23 0 27
-20 26 -13 -1 -30 -3 -40 -6z"/>
</g>
</svg>
