<?xml version="1.0" encoding="UTF-8" standalone="no"?>
<!-- Created with Inkscape (http://www.inkscape.org/) -->

<svg
   xmlns:dc="http://purl.org/dc/elements/1.1/"
   xmlns:cc="http://creativecommons.org/ns#"
   xmlns:rdf="http://www.w3.org/1999/02/22-rdf-syntax-ns#"
   xmlns:svg="http://www.w3.org/2000/svg"
   xmlns="http://www.w3.org/2000/svg"
   xmlns:sodipodi="http://sodipodi.sourceforge.net/DTD/sodipodi-0.dtd"
   xmlns:inkscape="http://www.inkscape.org/namespaces/inkscape"
   width="203.46683mm"
   height="133.19881mm"
   viewBox="0 0 203.46683 133.19881"
   version="1.1"
   id="svg8"
   inkscape:version="0.92.1 r15371"
   sodipodi:docname="drawing.html">
  <defs
     id="defs2">
    <clipPath
       id="clipPath4507"
       clipPathUnits="userSpaceOnUse">
      <path
         inkscape:connector-curvature="0"
         id="path4505"
         d="M 0,90 V 0 h 250 v 90 z" />
    </clipPath>
    <clipPath
       id="clipPath4513"
       clipPathUnits="userSpaceOnUse">
      <path
         inkscape:connector-curvature="0"
         id="path4511"
         d="m 272.031,-36.8086 c -0.261,0.3164 -0.664,0.6758 -1.015,1.0195 3.007,-1.9062 1.132,-0.332 0.097,0.6602 1.848,-1.1328 3.684,-2.3047 5.606,-3.5703 0.344,-0.625 0.793,-1.3594 -1.328,-0.4883 -1.219,0.918 -2.293,1.6484 -3.36,2.3789 z m 67.41,6.9375 c -2.578,1.7969 -5.066,3.4922 -7.144,4.9492 -0.422,0.3906 0.098,0.1172 0.973,-0.4219 l 2.191,-1.414 c -0.09,0.0781 -0.227,0.164 -0.316,0.2422 0.089,-0.0469 0.175,-0.1055 0.265,-0.1563 2.227,-1.5586 4.016,-2.8672 4.031,-3.1992 z m -13.699,10.6016 c -0.906,0.7539 -1.609,1.3867 -2.207,1.9453 0.242,-0.0703 0.403,-0.0977 0.403,-0.0313 0.046,-0.0273 0.085,-0.0547 0.132,-0.0859 0.09,0.0586 -0.027,0.2851 -0.175,0.5156 0.238,-0.1367 0.46,-0.2695 0.683,-0.3984 l 0.813,-0.5078 c -0.039,0.0195 -0.047,0.0273 -0.086,0.0586 1.035,-0.7032 2.031,-1.375 3.008,-2.0118 0.671,-0.4804 1.296,-0.8906 1.96,-1.3476 0.84,-0.6367 1.934,-1.4258 3.125,-2.3242 -6.281,4.1211 -3.835,1.6875 -7.656,4.1875 z m 16.199,-3.9063 c -2.097,1.6914 -3.535,2.9102 -1.05,1.5274 3.23,-2.3438 5.535,-3.918 7.566,-5.2149 -1.277,0.6406 0.266,-0.7734 -4.269,2.1953 -0.614,0.5078 -1.52,0.9961 -2.247,1.4922 z m 14.829,-0.0078 c 0.027,-0.0195 0.046,-0.0391 0.066,-0.0586 -1.074,0.7149 -2.188,1.457 -3.086,2.0508 l 1.035,-0.1563 c 2.473,-1.7968 5.918,-4.375 1.985,-1.8359 z m 3.113,2.9883 c -0.02,0 -0.02,0 -0.039,0.0078 0,0 0,0.0234 -0.008,0.0312 0.008,-0.0078 0.027,-0.0312 0.047,-0.039 z m 3.332,4.1328 c -0.324,0.1328 -0.86,0.5156 -1.281,0.7578 -0.664,0.5781 -1.387,1.2031 -2.188,1.8984 1.328,-0.996 2.625,-1.9843 3.469,-2.6562 z m 18.582,10.51562 c -0.906,0.45704 -2.402,1.36719 -3.945,2.35157 1.281,-0.73047 2.507,-1.45313 3.945,-2.35157 z m 11.348,1.52344 c -0.118,0.06641 -0.165,0.10938 -0.293,0.1836 -0.301,0.20703 -0.469,0.36328 -0.735,0.55078 0.317,-0.22657 0.735,-0.53125 1.028,-0.73438 z M 378.906,44.8242 c 0.907,-0.3945 2.332,-1.2578 4.129,-2.4609 -1.18,0.6797 -2.547,1.4922 -4.129,2.4609 z m -123.261,50.8906 -0.801,0.3985 -1.504,1.1094 z m -34.622,-0.789 c 0.344,-0.2227 0.493,-0.3164 0.981,-0.6524 -0.063,-0.0195 -0.363,0.1719 -0.481,0.1954 -0.273,0.2382 -0.339,0.3085 -0.5,0.457 z m -26.929,-3.793 c 0.281,-0.1133 0.75,-0.4375 1.101,-0.6289 2.547,-1.8398 5.645,-3.9766 7.871,-5.5586 0.02,-0.0312 0.039,-0.0625 0.059,-0.0976 -0.422,0.1836 -0.906,0.4257 -1.523,0.789 -1.465,1.1406 -5.657,4.0742 -7.508,5.4961 z m -32.805,-6.9883 c 0.457,-0.3789 0.945,-0.7851 1.649,-1.3164 -1.317,0.8633 -2.008,1.2891 -2.965,1.8946 0.347,-0.1329 0.75,-0.3164 1.316,-0.5782 z M 149.434,62.7656 c -1.485,1.3164 0.39,0.043 2.421,-1.3633 -0.695,0.3555 -1.496,0.8086 -2.421,1.3633 z M 110.25,50.1758 c 3.336,-2.1211 6.852,-4.3438 10.418,-6.6992 0.387,-0.3516 1.02,-0.7852 1.266,-1.0938 -3.133,1.7266 -7.039,4.5547 -11.684,7.793 z M 98.2227,46.0781 c 0.0351,-0.0625 0.0781,-0.1406 0.1132,-0.2109 -0.1914,0.1914 -0.6211,0.5117 -0.9179,0.7578 0.2773,-0.1836 0.5312,-0.3594 0.8047,-0.5469 z m -3.6524,-8.2773 c 1.2266,-0.8203 2.4063,-1.6797 3.3438,-2.4102 C 97.9688,35 97.25,35.0781 94.8359,36.5313 Z m 1.4688,-10.4766 c 1.0273,-0.6328 2.0507,-1.25 3.2422,-2 -0.4493,0.211 -0.9102,0.4297 -1.3399,0.625 -0.7109,0.5156 -1.4609,1.0625 -1.9023,1.375 z M 93.6133,15.9063 c 0.0742,-0.0391 0.1406,-0.0743 0.2109,-0.1172 0.0313,-0.0469 0,-0.0274 0.043,-0.0743 z M 361.387,-14.9805 c -0.735,0.461 -1.524,0.9571 -2.434,1.6211 l 0.996,-0.5781 c 0.489,-0.3477 0.996,-0.7109 1.438,-1.043 z m -3.25,2.3828 c 0.484,-0.3398 0.906,-0.664 1.375,-1.0156 l -1.242,0.8086 c -0.04,0.0508 -0.106,0.1484 -0.133,0.207 z M 122.23,-8.70313 c -1.136,0.85157 -2.257,1.69922 -3.398,2.5586 -0.285,0.32422 -0.883,0.77344 -1.937,1.46875 -3.399,2.57812 -6.762,5.14453 -9.993,7.57812 2.313,-1.41796 2.942,-1.71093 2.942,-1.60546 1.687,-1.191411 3.75,-2.54688 4.886,-3.37891 0.141,-0.09375 0.075,-0.07422 0.247,-0.19531 -0.016,0.01171 -0.016,0.03125 -0.036,0.04296 0.079,-0.05859 0.25,-0.16796 0.309,-0.21875 l 0.211,0.01172 c 0.254,-0.19531 0.445,-0.32422 0.762,-0.55468 l -0.711,0.55468 1.359,0.07032 3.047,-2.09375 c 2.734,-2.5 -2.98,1.15625 -4.152,1.55468 2.586,-1.6289 5,-2.92187 7.461,-4.29687 0.75,-0.59375 1.789,-1.38672 3.382,-2.52735 -3.273,1.99219 -5.941,2.92969 -4.289,1.21875 1.203,-0.73046 9.133,-6.04687 4.258,-2.00387 1.504,-1.1407 2.485,-1.9219 3.344,-2.625 -1.391,0.5078 -3.477,1.6211 -7.692,4.44137 z M 108.074,2.80078 c -0.84,0.625 -1.707,1.27344 -2.476,1.85938 0.746,-0.48047 1.496,-0.95703 2.285,-1.48828 -0.192,0 0.086,-0.23047 0.191,-0.3711 z m -1.73,2.21875 c 0.234,0.03906 0.121,0.3125 -0.539,0.96485 1.867,-1.19141 3.496,-2.19532 3.156,-1.65625 1.383,-0.84375 2.672,-1.59375 3.891,-2.30469 2.089,-1.664065 4.195,-3.34375 5.054,-4.21094 -0.207,0.12891 -0.301,0.17578 -0.519,0.33203 0.254,-0.16797 0.343,-0.24219 0.578,-0.39062 0.062,-0.07032 0.211,-0.1836 0.254,-0.24219 -0.739,0.48437 -1.621,1.01562 -2.489,1.531249 -0.714,0.480468 -1.519,0.957031 -2.292,1.398437 -0.528,0.320313 -1.071,0.644534 -1.629,0.972654 -1.911,1.26172 -3.856,2.53125 -5.465,3.60547 z m 11.754,-7.55859 c 0.925,-0.53907 1.941,-1.16407 3.125,-1.9336 1.574,-1.12109 1.672,-1.33593 1.351,-1.3164 -1.73,1.23828 -3.164,2.30468 -4.476,3.25 z m -4.899,-0.44922 c -2.519,1.42578 -5.109,3.730468 -7.617,5.07031 -0.527,0.41797 -0.891,0.71875 -1.336,1.07422 2.551,-1.5625 4.91,-2.992187 7.758,-5.03125 0.594,-0.49609 0.961,-0.83984 1.195,-1.11328 z M 332.227,-38.5469 c -1.512,1.0196 -2.93,1.9649 -4.434,2.9805 -0.422,0.4492 -0.859,0.9101 -1.355,1.3867 l 0.789,-0.1758 c -0.539,0.3516 -1.387,0.9375 -2.247,1.5352 -0.41,0.3476 -0.832,0.7109 -1.375,1.1484 0.047,-0.039 0.086,-0.0586 0.118,-0.0859 2.91,-2.4727 10.879,-6.9024 10.691,-8.0078 -0.461,0.1875 -1.269,0.6562 -2.187,1.2187 z m -61.536,3.0781 c -0.515,0.4883 -1.328,1.1055 -2.207,1.7579 0.325,-0.168 0.598,-0.3047 0.903,-0.461 1.328,-1.0312 2.156,-1.7344 1.304,-1.2969 z m -99.168,-53.75 c 13.321,-8.3203 15.832,-9.4531 12.168,-6.0234 1.114,-1.2226 -0.578,-0.7539 -4.277,1.8438 l -0.769,3.3711 c -1.957,1.0351 2.878,-2.793 -2.961,1.1406 -7.61,5.5273 2.961,-1.1406 -3.157,3.3672 -2.781,1.6914 -4.304,1.8593 -7.664,4.707 -5.078,4.3984 -4.023,5.0898 0.418,2.9531 -9.312,6.2891 -9.605,6.4922 -18.953,12.8008 5.567,-3.3789 -2.922,3.8672 7.41,-3.293 l 0.93,-1.7656 c 3.555,-2.3164 11.809,-8.1523 11.992,-7.6172 2.219,-2.4414 6.934,-7.0703 3.543,-5.0703 1.945,-1.0234 5.883,-3.1016 1.875,0.0625 8.957,-5.3828 9.426,-8.1641 16.621,-11.9844 0.578,0.7735 -14.898,12.3555 -3.301,5.5664 -5.808,3.9336 -11.14,7.8125 -16.636,11.9922 3.777,-1.7851 0.047,2.7344 0.508,3.75 -7.524,4.4336 -18.665,12.2266 -25.649,16.5625 l 4.426,-2.1211 -17.695,11.2813 c 4.421,-2.1406 -25.188,20.332 -1.579,4.0234 12.477,-8.5351 -2.269,3.5078 10.504,-5.5859 l -1.882,-0.0508 0.64,-0.3398 c 3.059,-2.2539 6.645,-6.4961 9.36,-7.0821 -11.157,7.8242 0.105,1.6328 -1.411,3.711 -4.214,2.6601 -9.57,6.5742 -13.711,10.0117 l 11.957,-6.5313 c -2.023,1.4141 -4.035,2.8008 -7.472,5.2305 5.578,-3.3789 11.465,-6.5117 17.812,-10.5039 2.559,-2.1992 6.407,-5.0977 9.969,-7.4141 1.25,-1.4843 -2.098,-0.5664 4.035,-5.0976 1.602,0.6367 14.27,-9.2461 19.903,-11.8086 4.511,-3.25 4.953,-4.1211 3.925,-3.9922 -4.226,2.6641 -10.351,7.1875 -14.277,9.2578 12.844,-10.1953 -12.148,6.0352 -3.574,-1.4766 9.07,-6.5117 5.273,-2.8085 12.715,-8.0234 1.738,0.3711 11.218,-5.1016 17.121,-8.2344 -23.996,18.0157 -0.246,3.3203 -16.067,16.5625 4.629,-1.5937 7.364,-5.9961 12.957,-8.5468 -8.894,6.1914 -17.722,13.2031 -12.105,10.6562 l -5.781,2.832 c 0.879,-0.6445 2.222,-1.6328 3.086,-2.2578 2.031,-2.1484 -6.555,3.4766 -10.286,6.086 4.082,-2.375 5.618,-2.5391 2.911,-0.0782 -2.247,1.6211 -3.426,2.0391 -7.129,4.6368 0.195,0.5273 -1.993,2.9726 6.757,-2.9454 l 1.59,-1.2617 2.192,-0.5351 c 6.133,-4.5039 13.875,-10.293 16.863,-11.4766 0.93,0.9961 6.172,-1.7891 11.648,-4.0625 l -4.746,2.7461 c -1.726,1.543 -2.714,2.5 -0.879,1.7461 7.582,-5.4961 18.098,-12.9883 23.032,-15.1641 -4.453,4.0313 1.383,1.9883 4.715,1.0703 -17.278,12.3555 -21.797,13.6836 -35.207,23.125 -6.063,5.3243 -6.571,5.3829 -9.239,8.711 4.914,-3.0352 1.762,0.332 10.18,-5.8281 2.019,-2.1289 -5.117,2.5 -5.332,1.9804 8.902,-6.2187 1.851,0.0821 9.976,-5.5039 l 5.774,-4.7461 c 5.078,-2.4843 16.183,-11.125 15.144,-9.0742 l -8.308,6.9336 c 3.777,-1.7852 10.847,-7.2461 13.254,-9.1484 -3.645,3.414 6.773,-2.9532 4.402,-1.0547 0.43,-0.8516 -3.976,2.1172 -7.695,4.707 -6.153,5.5859 17.16,-10.1406 3.379,0.9649 0.586,-1.1524 4.226,-4.5704 -4.383,1.0625 -5.688,3.6445 -9.289,7.8828 -12.629,8.8125 l -7.012,6.25 c 2.781,-1.6915 7.356,-4.1133 9.563,-6.5547 2.332,-0.8008 2.898,-0.0586 11.004,-5.6133 -8.106,5.5547 -8.828,7 -9.563,8.457 1.152,-0.4101 12.68,-7.9922 9.707,-6.8359 l 7.871,-4.1836 0.93,-0.9063 -0.215,1.3868 c -5.019,3.2812 -0.945,-0.9766 -7.883,4.1601 -1.101,1.2305 2.864,-0.8789 -1.519,2.0703 2.5,-1.0937 9.976,-5.4883 14.629,-8.9922 1.765,-1.582 -2.434,1.0625 0.613,-1.1836 13.047,-7.7539 -8.176,6.668 -1.27,3.4258 l -0.664,0.3633 c -4.343,2.9297 -4.797,3.7969 -5.769,4.7461 3.972,-2.1211 4.051,-3.2109 8.238,-5.8398 0.363,0.2226 -1.504,2.0585 1.074,0.6835 1.926,-1.875 3.41,-2.871 9.493,-7.3632 6.093,-2.5977 -14.051,11.6875 -12.165,11.7382 6.676,-3.7304 10.223,-4.1328 7.79,-1.1523 -4.325,1.8555 1.171,-2.3242 -2.989,-0.7422 -6.941,5.1563 -11.746,7.0703 -14.383,10.3828 9.832,-5.2265 5.664,0.1641 13.047,-3.9648 15.813,-11.3399 -12.109,6.8437 7.285,-6.836 -2.839,2.793 4.856,-1.0859 -3.371,4.7618 5.981,-4.2266 0.286,1.3476 7.571,-3.5821 -3.133,1.4571 3.222,-2.5586 4.851,-3.8359 -0.152,0.2734 -3.379,3.3203 -0.222,1.1914 -4.739,3.2773 -9.485,6.543 -13.157,9.0586 -1.257,1.5156 8.285,-5.0156 8.391,-4.2266 -8.457,5.3321 -4.609,4.3555 -8.328,6.9727 6.328,-4.0039 15.039,-10.7344 17.176,-11.2422 -4.207,2.6484 -9.09,5.6758 -9.825,7.1289 -14.863,10.4102 -7.136,2.707 -16.171,9.1992 -1.083,1.1953 5.324,-1.9687 -3.301,3.6446 l 6.211,-3.711 c -10.418,8.2735 -2.266,3.5352 -2.649,5.2031 2.207,-0.5234 15.586,-9.9492 14.875,-10.4101 5.11,-2.5 7.832,-5 8.391,-4.2266 -2.102,1.336 -3.879,2.8789 -5.488,4.168 -1.543,2.1016 8.75,-5.9063 7.539,-4.4023 -0.161,0.3046 -3.735,2.6093 -4.805,3.8203 l 9.234,-5.9493 c -5.781,4.7383 -11.043,7.5196 -14.312,9.2579 -3,3.0742 6.93,-3.2422 4.219,-0.7422 -3.579,2.3125 -0.997,0.1172 -5.52,3.3398 1.563,0.6524 10.773,-6.1445 15.598,-8.0469 6.394,-5.0703 -4.328,1.8633 -2.895,0.0508 l 11.438,-8.3906 c -0.965,0.918 -6.582,5.3906 1.504,-0.1758 l 4.179,-3.4687 c 1.778,-0.7578 -6.992,6.25 -0.144,2.1992 l -9.668,7.6562 c -9.555,6.543 -2.824,0.8789 -9.817,5.2032 -3.64,3.4101 -10.664,5.8828 -14.765,10.1562 0.117,0.0234 0.105,0.1172 0.136,0.1875 0.926,-0.332 1.895,-0.7031 2.715,-0.9961 -0.781,0.5664 -1.418,1.0078 -2.129,1.5352 0.403,0.0078 1.243,-0.3164 3.672,-1.7891 l 1.875,-1.8476 c 0.949,0.9804 10.567,-4.7461 11.692,-4.0704 5.515,-3.3515 7.879,-6.0742 9.461,-7.3554 0.429,-0.8477 -7.559,3.6054 -0.125,-1.6211 3.55,-1.3047 0.195,2.5781 5.339,-0.4102 -0.554,0.3828 -1.035,0.7422 -1.347,1.0664 l 3.269,-1.75 -2.117,1.3321 c -0.422,0.8789 -2.644,3.3203 1.453,0.9257 l 4.172,-3.4882 c 1.211,0.4414 10.391,-4.4336 1.719,2.2851 -0.574,1.1445 6.836,-4.0508 9.824,-5.2148 -17.59,12.9218 -16.008,8.9101 -31.426,19.3984 3.711,-0.6641 15.684,-7.2305 21.133,-9.5039 1.926,-1.8633 7,-4.3359 11.961,-8.4453 -4.851,3.8555 1.066,0.7109 -3.434,3.9336 -5.121,2.5 -16.183,9.2187 -21.078,12.2187 -2.254,3.5313 -8.093,5.5469 -8.875,8.1016 0.996,-0.1055 9.18,-6.7539 10.559,-6.6602 0.789,-0.6015 9.18,-6.7656 3.633,-3.4062 7.859,-6.0625 8.406,-4.2266 18.367,-11.6406 -0.84,1.707 -4.531,5.164 -13.684,11.914 6.047,-3.4101 11.25,-8.0859 15,-10.6953 l 13.332,-6.4336 c -8.691,6.7188 2.942,0.7696 -3.398,6.6875 -9.758,6.0078 -6.094,2.5781 -7.5,2.4727 1.316,-0.6836 2.488,-1.0938 4.258,-2.6875 -1.035,0.1406 -7.356,4.1211 -3.203,0.6562 l -8.118,5.5664 c 1.016,-2.0312 12.043,-7.6562 11.758,-8.9765 -2.976,1.1328 -16.394,10.5859 -21.14,13.3125 -2.696,2.4883 -0.743,1.457 -1.985,2.9609 7.961,-5.2851 14.348,-8.4492 9.133,-3.7812 0.598,-1.1524 -4.543,1.3476 -8.848,5.1093 l 6.219,-1.8007 c -3.457,2.0429 -2.769,-0.2227 -8.687,4.8242 3.093,-1.4532 -4.258,4.5625 5.625,-1.7266 6.726,-3.7773 16.004,-11.668 19.929,-13.7383 -2.082,1.3047 1.895,0.0547 6.114,-2.6093 -2.52,2.1796 -9.141,6.7695 -7,6.25 3.933,-2.0821 8.125,-5.5665 9.558,-6.5313 -10.437,8.2695 12.688,-6.0859 -0.664,4.1797 4.942,-3.957 4.363,-2.5508 6.582,-3.6641 -7.179,4.7657 -12.226,10.4024 -20.09,14.1914 2.258,-1.6211 3.911,-2.9218 6.621,-4.582 -0.347,-0.2266 -4.414,2.1172 -7.351,4.1016 -4.434,4.0625 -10.359,9.1015 -15.84,13.2734 -3.293,1.7461 4.348,-3.7734 6.848,-5.9492 -0.715,0.1953 -1.66,0.7617 -2.649,1.3867 l -8.242,6.5039 c -2.812,1.9727 -4.094,2.8125 -4.805,3.2031 -0.703,0.6328 -1.152,1.1328 -1.589,1.6211 3.043,-1.5117 5.027,-2.0508 5.269,-1.414 0.274,-0.1875 0.539,-0.3633 0.82,-0.5391 1.079,-0.9258 1.946,-1.7187 2.59,-2.2266 0.508,-0.789 -7.176,3.8477 0.164,-1.414 2.129,-0.9571 1.555,0.125 2.082,0.2929 3.172,-2.2304 6.219,-4.414 8.711,-6.3281 8.875,-5 21.367,-12.0234 26.172,-14.7187 -3.664,3.4297 4.707,-0.7891 -4.316,5.6758 -1.856,0.7578 -4.485,2.1679 -7.735,3.8828 -5.117,4.414 5.176,-1.668 10.711,-5.0391 -3.203,2.5391 -8.543,6.4375 -4.636,4.3594 9.05,-6.4883 12.187,-7.9414 16.523,-9.8164 5.813,-2.0196 -13.965,11.4375 -2.527,4.9609 l 5.488,-4.1797 c 0.625,1.5508 -0.664,2.2461 -5.402,7.7227 l 7.988,-5.3008 c -7.219,5.7422 3.476,-1.2031 0.613,1.6016 -2.676,1.7304 -6.551,4.2304 -9.195,5.9296 l 2.019,-0.2382 c -2.793,1.7031 -10.871,7.2382 -10.8,8.0586 -0.496,0.3046 -1.153,0.6836 -1.883,1.1211 2.847,-1.3946 8.633,-4.8321 0.242,1.6132 4.961,-3.9257 4.238,-2.6445 6.355,-3.8281 -4.871,3.3516 -9.109,6.8164 -13.589,10.0586 -0.403,0.5586 -0.493,0.9766 -2.012,2.1016 6.336,-3.9961 20.457,-12.961 27.027,-18.3399 l -9.414,6.2578 9.008,-7.3125 c 8.727,-3.9961 -3.762,6.4336 -0.648,6.9024 -4.305,3.7578 -15.36,10.4492 -7.809,6.8828 2.801,-1.668 9.93,-6.2969 11.961,-8.4453 -0.781,1.0234 -5.567,4.8359 -7.859,6.914 0.117,-0.0507 0.222,-0.1093 0.332,-0.164 1.394,-0.5977 1.082,-0.0899 0.085,0.8398 0.489,-0.2656 0.879,-0.4687 1.661,-0.9297 -0.528,0.4688 -1.907,1.5039 -3.536,2.6953 0.047,-0.0195 0.118,-0.0507 0.176,-0.0664 -0.664,0.4688 -1.191,0.8282 -1.828,1.2579 -1.543,1.3867 -1.308,1.5429 -1.082,1.6601 0.469,-0.2734 0.734,-0.418 1.453,-0.8594 l 5.5,-4.1875 c 0.215,0.9336 -0.437,1.6485 -2.558,3.7774 2.539,-1.4727 4.699,-2.6172 5.937,-2.8516 2.598,-2.207 10.098,-6.582 8.711,-6.7187 l -8.953,5.3828 c 4.156,-3.4492 8.133,-4.7071 12.613,-8.8125 -1.472,1.6445 -1.16,2.0039 0.383,1.3515 -3.406,2.2461 -7.969,5.9844 -10.117,7.4297 1.66,-0.4687 8.703,-5.8867 5.098,-2.4922 -7.559,5.5 -6.016,3.3907 -4.981,2.2188 -3.113,2.1016 -5.187,3.6211 -6.727,4.8437 0.418,-0.0586 2.469,-1.3007 3.036,-1.4531 l 5.769,-2.9336 c -1.109,0.8828 -1.863,1.5274 -2.39,2.0235 1.921,-1.2579 3.925,-2.6485 5.722,-3.6641 -4.656,3.3711 -5.676,4.4727 -6.074,5.207 0.645,0.0469 1.437,0.0586 0.996,0.918 2.715,-1.7188 5.078,-3.2813 6.902,-4.9688 2.61,-1.3789 -1.57,2.1055 -4.48,4.0704 2.48,-1.4844 2.059,-0.7539 1.504,0.1054 l -0.02,0.0117 c -0.754,1.1211 -1.726,2.4219 3.125,-0.7695 -4.687,3.1914 -5.351,4.1758 -6.765,5.625 1.715,-1.2734 3.113,-2.3828 3.836,-2.8633 -2.137,1.7188 -2.664,2.3047 -2.578,2.4922 5.71,-3.6562 6.113,-3.4023 4.914,-1.9961 1.66,-0.7031 1.992,-0.4765 -3.157,3.5274 4.922,-3.9453 4.285,-2.5977 6.477,-3.7305 -4.082,2.7852 -7.617,5.7227 -11.262,8.543 0.028,-0.0157 0.07,-0.0274 0.11,-0.0469 1.882,-1.2188 3.816,-2.5195 5.957,-4.3828 -0.286,0.3008 -0.239,0.332 -0.414,0.5351 1.183,-0.8007 2.375,-1.6289 2.98,-2.0781 -0.203,0.2227 -3.645,3.125 -0.508,0.9844 -0.93,0.6445 -1.816,1.25 -2.734,1.8945 0.195,0 0.304,0.0469 0.793,-0.1953 -1.489,1.1133 -3.352,2.4805 -5.102,3.7813 1.086,-0.6563 1.875,-1.1055 1.828,-0.918 -3.039,1.9805 -4.492,3.0625 -5.312,3.7656 2.472,-1.5508 6.379,-4.4805 3.398,-1.8047 -2.761,2.0196 -4.258,3.0274 -5.027,3.4375 -0.332,0.3203 -0.805,0.7149 -1.699,1.3399 6.218,-4.0821 15.117,-10.6875 16.992,-11.3594 -4.152,2.6953 -8.918,5.7812 -9.934,7.0586 -1.609,1.1367 -2.832,1.9648 -3.957,2.7187 0.293,-0.1289 0.442,-0.1562 0.539,-0.1562 1.075,-0.7031 2.266,-1.5664 3.262,-2.1797 -1.394,1.0234 -2.402,1.7969 -3.242,2.4492 -0.242,0.3321 -0.82,0.8828 -1.699,1.6446 5.578,-3.254 10.769,-6.2891 13.488,-7.8711 -2.149,2 -0.266,1.3671 -0.102,1.7929 l 3.559,-2.3633 c -1.32,1.0079 -2.363,1.6602 -3.574,2.5235 -0.149,0.418 -1.106,1.3359 -4.282,3.6601 -1.519,0.6758 -3.726,1.875 -6.289,3.2813 -0.027,0.0195 -0.027,0.0195 -0.046,0.0508 -0.176,0.2226 -0.332,0.4375 -0.403,0.5859 0.344,-0.0391 1.926,-0.957 3.164,-1.6719 0.149,-0.0976 0.199,-0.1172 0.356,-0.2265 -0.071,0.0625 -0.11,0.0703 -0.176,0.1289 1.121,-0.625 1.824,-0.9844 0.75,-0.0781 -2.898,1.9257 -1.797,0.9765 -3.762,2.3046 2.59,-1.4257 6.555,-3.8593 9.321,-5.5976 -0.649,0.5273 -1.399,1.125 -2.141,1.6992 2.226,-1.4141 4.414,-2.7812 5.996,-3.5508 6.563,-4.9844 -3.992,2.0781 -2.355,0.418 l 11.566,-8.3203 c -1.02,0.8789 -6.801,5.2539 1.277,-0.3438 l 4.325,-3.3672 c 1.652,-0.832 -7.411,6.0157 -0.75,1.8282 l -9.915,7.4882 c -0.964,0.6641 -1.668,1.1407 -2.332,1.5821 2.207,-1.2969 3.977,-2.1485 5.957,-3.0664 1.387,-0.5157 1.231,-0.0899 0.418,0.75 0.161,0.1992 0.598,0.1679 2.7,-1.1407 -0.52,0.3829 -1.02,0.7422 -1.379,1.0235 l 3.117,-1.836 -2.082,1.3594 c -0.281,0.3711 -1.035,1.125 -1.25,1.4727 l 1.301,-0.9844 c 0.066,0.1953 0.015,0.3711 0.015,0.5469 0.293,-0.1641 0.403,-0.1953 0.84,-0.4688 l 4.328,-3.3906 c 0.84,0.207 9.602,-4.9492 0.711,1.6328 -0.75,1.0039 6.66,-4.1797 9.399,-5.5156 -10.442,7.5156 -13.95,9.4414 -18.137,11.8633 -0.711,0.7695 -1.543,1.6718 -2.559,2.832 0.125,-0.0664 0.235,-0.125 0.352,-0.1953 l 7.449,-5.0391 c -1.961,1.5742 -2.535,2.1367 -2.508,2.2774 1.653,-0.9102 3.196,-1.75 4.325,-2.336 2.05,-1.7773 6.859,-4.4531 12.003,-8.4453 -4.992,3.7656 0.645,0.4258 -3.886,3.6406 -2.356,1.3282 -6.133,3.6602 -9.934,6.0547 0.754,-0.3593 1.176,-0.4804 0.695,0.0664 2.93,-1.7578 5.227,-2.8711 11.731,-7.5781 -1.184,1.5039 -5.109,4.7695 -14.367,11.4766 5.793,-3.543 11.328,-8.0469 15.078,-10.6563 l 12.527,-6.9804 c -8.902,6.6093 2.133,0.2539 -4.629,5.8789 -9.527,6.1718 -5.625,2.8984 -6.746,3.0195 1.27,-0.7617 2.317,-1.2344 4.192,-2.7383 -0.864,0.2383 -7.063,4.2969 -2.747,0.9297 l -8.093,5.5977 c 1.414,-1.7891 11.824,-7.8047 11.98,-8.8477 -2.715,1.3164 -16.152,10.7383 -20.742,13.5938 -2.891,2.3828 -0.984,1.2578 -2.422,2.6562 7.871,-5.3242 13.914,-8.7422 8.406,-4.2695 0.598,-0.7696 -2.039,0.6172 -5.32,2.9023 1.438,-0.5312 1.746,-0.2656 1.348,0.4961 l 0.879,-0.3633 c -0.418,0.2657 -0.633,0.3516 -0.926,0.5078 -0.246,0.4219 -0.617,0.9414 -1.074,1.5352 6.394,-4.082 15.086,-10.8203 18.589,-12.8789 -2.031,1.3281 1.504,-0.2149 5.657,-2.9297 -2.664,2.1172 -9.27,6.6875 -7.41,5.9922 3.765,-2.2149 8.113,-5.5859 9.5,-6.543 -10.711,8.0781 11.921,-6.6172 -1.719,3.4805 5.097,-3.8477 4.238,-2.6602 6.34,-3.8399 -7.114,4.8125 -12.754,10.0391 -20.149,14.1485 2.293,-1.6094 3.965,-2.8711 6.602,-4.5781 -0.203,-0.1368 -4.113,2.3164 -7.024,4.2851 -4.429,3.6133 -10.086,8.0703 -15.332,11.9922 -0.132,0.3945 0.305,0.3711 2.309,-0.8477 l 4.156,-3.457 c 0.305,0.0781 1.164,-0.2265 2.11,-0.5859 8.5,-5.1953 19.726,-12.0391 24.171,-14.7774 -3.886,3.2539 4.012,-1.2578 -5.058,5.1758 -1.699,0.8633 -4.207,2.3477 -7.324,4.1719 -5.34,4.2578 4.66,-2.0313 10.039,-5.5 -3.289,2.5 -8.692,6.3594 -4.942,4.1523 9.09,-6.4648 12.024,-8.0468 16.028,-10.1289 5.222,-2.4101 -14.465,11.1055 -3.43,4.3594 l 5.566,-4.1133 c 0.059,1.1797 -1.172,1.9219 -6.511,6.9805 l 7.898,-5.3516 c -7.41,5.5977 3.137,-1.4218 0.051,1.2227 -2.629,1.7383 -6.445,4.2969 -9.074,6.0273 l 1.699,-0.4609 c -1.992,1.2891 -6.863,4.6211 -9.375,6.5625 0.176,0.6641 3.894,-0.8594 -0.488,3.0976 -9.559,6.14849 -5.872,2.7696 -7.149,2.7696 1.301,-0.7188 2.402,-1.1602 4.192,-2.7305 -0.598,0.1055 -3.262,1.7461 -4.133,2.1055 -3.719,2.4062 -7.657,5.0117 -9.129,6.16404 0.379,-0.20312 0.679,-0.33203 0.945,-0.4375 4.434,-3.07812 7.356,-4.67964 7.395,-4.32814 -5.825,3.55471 -7.239,5.35158 -9.907,7.48049 4.59,-2.83985 2.454,-1.88672 6.399,-4.7461 l 4.59,-2.43359 c -5.391,3.46875 -3.067,2.66016 -6.16,4.85547 C 378.27,-10 392.148,-19.1328 398.945,-24.375 l -9.316,6.3281 9.289,-7.1406 c 8.145,-4.3906 -4.836,5.7344 -2.473,5.707 -2.226,1.7774 -5.91,4.3164 -8.293,6.0039 -0.593,0.6446 -0.027,0.4883 0.989,0.0078 3.093,-2.0117 9.011,-5.9843 11.062,-7.8203 -0.848,0.8672 -5.183,4.1485 -7.73,6.211 1.113,-0.5196 1.621,-0.6055 0.906,0.1445 0.137,-0.0859 0.176,-0.0937 0.332,-0.2031 -0.066,0.0586 -0.352,0.2656 -0.457,0.3515 -0.598,0.5664 -1.574,1.418 -3.645,3.0079 4.922,-3.9258 4.258,-2.6172 6.399,-3.7696 -2.668,1.8164 -4.985,3.75 -7.356,5.64456 3.426,-2.20706 6.516,-4.12106 7.903,-4.57816 2.691,-2.1406 9.929,-6.6914 8.875,-6.6054 l -8.7,5.5507 c 4.286,-3.3711 7.821,-4.914 12.625,-8.8007 -1.679,1.5156 -1.523,1.7461 -0.085,1.0234 -3.286,2.3437 -8.165,5.8789 -10.239,7.3555 1.457,-0.586 8.672,-5.9297 4.824,-2.6875 -7.656,5.4687 -5.796,3.5468 -4.609,2.4531 -11.601,7.90234 -9.683,7.59765 -15.437,11.95312 7.254,-4.97266 14.25,-10.04692 20.078,-13.62112 -9.895,7.0703 -4.063,3.9063 -9.844,8.28909 4.785,-3.11719 8.113,-5.20309 10.984,-7.58599 2.473,-1.457 -1.843,1.9024 -4.746,3.9024 5.586,-3.543 -4.629,4.58202 3.867,-1.1328 -6.062,4.1445 -5.562,4.3867 -8.699,6.83982 19.246,-12.98042 -3.191,4.07032 3.446,-0.11718 -0.223,0.15234 -0.372,0.22265 -0.567,0.34765 1.965,-1.14843 3.637,-1.98047 5.442,-2.84769 5.527,-2.2304 -14.004,11.40238 -2.84,4.71488 l 5.465,-4.20703 c 0.402,1.41406 -0.836,2.12891 -5.75,7.44922 l 7.851,-5.36328 c -7.219,5.72656 3.313,-1.32813 0.383,1.42578 -2.609,1.75 -6.445,4.30078 -9.055,6.027342 l 1.856,-0.324218 c -2.317,1.484376 -8.25,5.656246 -9.981,7.328126 0.098,0.08594 -0.09,0.37891 -0.703,0.97266 l -5.691,4.03512 7.39,-4.09372 c -3.437,2.76562 -9.922,6.67972 -14.824,9.95312 -0.644,0.5859 -1.262,1.1602 -1.836,1.7109 0.879,-0.5585 1.61,-0.9882 2.586,-1.6328 0.41,-0.4101 0.949,-0.9257 2.375,-2.0117 l 2.551,-1.2383 c 1.363,-0.9101 2.547,-1.7109 4.098,-2.7265 1.875,-1.0821 1.25,-0.3242 0.214,0.9179 l -1.89,1.0821 c -3.625,2.4531 -3.906,2.914 -5.063,3.9375 1.543,-1.0078 3.274,-2.1563 5.364,-3.5235 1.218,-0.9218 2.168,-1.6328 2.011,-1.5937 2.403,-1.5547 4.102,-2.6172 5.305,-3.35939 4.891,-3.33985 9.766,-6.79688 12.906,-9.3750038 l -9.258,6.3476538 9.016,-7.29687 c 8.406,-4.22657 -4.133,6.16406 -1.348,6.39844 -1.992,1.72656 -5.339,4.08203 -7.683,5.78907 1.133,-0.6524 2.625,-1.53126 4.988,-2.98439 -2.422,1.76563 -3.992,3.00779 -5.254,4.05079 0.027,-0.0195 0.027,-0.0195 0.067,-0.0391 2.753,-1.7187 9.757,-6.41794 11.847,-8.52731 -0.945,1.14453 -7.082,5.96875 -8.73,7.62891 0.879,-0.5195 1.472,-0.8398 1.23,-0.5352 -0.574,0.4063 -0.945,0.6602 -1.433,1.0235 0.269,-0.0508 1.043,-0.4297 2.957,-1.6211 -0.196,0.168 -0.774,0.5976 -1.145,0.8906 0.813,-0.5781 1.524,-0.9766 2.356,-1.61327 -2.293,1.97267 -10.286,7.59767 -5.008,4.44527 -4.145,2.8282 -7.856,5.3985 -12.043,8.0743 -0.176,0.1562 -0.332,0.3046 -0.508,0.4492 4.656,-2.4531 21.516,-13.74221 20.117,-12.0899 l -2.109,1.3282 c 2.226,-1.2422 2.859,-1.3868 2.804,-1.0938 3.016,-2.32421 8.907,-6.01562 7.782,-6.05468 l -8.782,5.51958 c 4.172,-3.44927 7.942,-4.85552 12.473,-8.87896 -1.523,1.58204 -1.262,1.89454 0.215,1.1836 -3.367,2.29297 -7.957,6.02344 -10.059,7.48047 1.582,-0.53125 8.606,-5.96094 4.922,-2.60938 -7.511,5.53517 -5.871,3.50777 -4.765,2.34375 -0.774,0.52732 -1.328,0.93752 -1.973,1.40622 -1.008,1.2618 -4.523,4.1485 -1.355,2.3243 l -8.262,5.6054 c -0.395,0.3906 -0.821,0.8008 -1.34,1.25 0.019,0.0781 0.019,0.1563 0.176,0.1055 0.254,-0.1367 0.722,-0.457 1.164,-0.7774 0.379,-0.2539 0.73,-0.5078 1.101,-0.7734 0.313,-0.2148 0.645,-0.4687 0.868,-0.625 0.023,-0.0117 0,0.0117 0.023,0 5.223,-3.7109 10.27,-7.3047 14.668,-9.92968 -9.777,7.15628 -3.731,4.09768 -9.375,8.57418 4.812,-3.0898 8.144,-5.1601 10.894,-7.62887 2.524,-1.41797 -1.628,2.03907 -4.519,4.02347 5.644,-3.51566 -4.219,4.8554 4.277,-0.8711 -5.996,4.1797 -5.398,4.5039 -8.41,7.0351 19.184,-13.03903 -2.613,4.4024 4.067,0.2422 -2.864,1.9922 -3.176,1.7969 -6.086,3.8203 -3.664,2.5938 -5.11,4.3321 -2.559,2.8985 l -0.664,0.3711 -4.348,3.7422 7.043,-4.7188 c -4.726,3.9648 -16.308,11.4844 -22.676,16.3516 0.911,-0.5664 1.551,-1 2.625,-1.6289 -0.613,0.3476 -2.75,1.6992 -3.804,2.5625 l 8.844,-5.4688 c -2.887,1.9922 -5.165,3.5664 -6.93,4.7656 -0.422,0.5078 1.328,-0.5507 3.355,-1.832 4.922,-3.4531 11.008,-7.8867 15.16,-10.4336 l -6.73,5.6133 c 12.441,-8.875 -0.227,1.7695 11.16,-6.6758 0.625,0.1641 -2.859,2.7305 -6.199,5.1953 0.867,-0.4531 1.641,-0.8711 2.207,-1.1719 -2.703,1.7071 -4.871,3.25 -6.621,4.5586 -0.457,0.3711 -0.789,0.6758 -0.969,0.8985 2.231,-1.4453 2.578,-1.543 2.277,-1.1602 2.665,-1.75 5.071,-3.1953 5.313,-3.5195 -0.613,0.7539 -3.469,2.7539 -6.777,4.9726 -1.036,0.9883 -1.934,1.8907 -0.391,1.0938 -0.625,0.3594 -1.941,1.0898 -3.359,2.0898 -3.086,3.7461 20.586,-12.5664 1.64,2.1563 -3.515,2.3594 -0.769,-0.1094 -5.273,3.1601 3.015,-1.5078 -2.625,3.6641 8.586,-4.4882 -7.219,5.7187 -8.281,5.414 -10.246,7.9843 -5.606,3.7227 -5.918,3.543 -9.246,5.6016 -4.473,3.2578 -4.68,4.2852 -4.68,4.2852 -1.317,0.7304 -3.192,1.8086 -6.887,4.4414 0.293,0.1875 3.676,-1.8985 6.223,-3.3399 4.148,-2.7109 8.301,-6.1601 9.297,-7.0898 1.875,-1.0625 -4.817,3.8281 -1.477,1.7461 l 9.621,-6.8946 c 0.598,0.3789 -11.562,8.711 -5.344,5.3829 -1.277,0.7304 -3.484,2.332 -5.585,3.7187 -8.231,6.6523 8.41,-3.4844 1.308,1.9766 -10.855,6.8711 -5.32,4.6562 -15.027,11.0703 12.898,-8.2149 -10.176,9.1914 3.906,-0.2188 2.488,-0.6914 -17.324,13.4532 -13.223,11.4961 -9.472,8.0938 -25.507,19.3438 -35.421,26.7888 -3.172,1.797 -2.84,0.516 -9.071,5.309 l -0.351,0.562 c -1.438,0.985 -8.477,5.727 -9.239,5.594 4.5,-3.992 10.262,-7.988 13.653,-11.547 -7.285,3.758 3.957,-5.152 2.539,-5.621 l 1.301,-0.73 c 12.007,-9.5316 -9.868,5.953 0.242,-2.524 l 0.644,-0.347 c 1.121,-1.1879 3.067,-3.7465 -1.367,-1.2309 l 5.731,-3.2461 c 2.367,-4.9375 -0.985,-5.9882 -7.45,-4.6562 -0.09,0.039 -0.09,0.0156 -0.136,0.0312 -0.508,0.1055 -0.977,0.1953 -1.504,0.3282 -2.207,1.3398 -3.86,2.2304 -4.61,2.5273 1.297,-0.8867 2.141,-1.4297 3.184,-2.1367 -1.965,0.539 -4.063,1.1875 -6.375,2.0312 -3.012,1.9141 -6.215,4.043 -9.848,6.656 0.215,0.532 15.332,-10.0739 9.883,-5.9099 l -14.961,9.5979 c -0.262,0.215 -0.367,0.324 -0.332,0.332 l -1.766,1.004 c -1.074,0.871 -10.722,7.711 -3.132,2.961 -11.614,7.562 4.175,-3.832 -5.696,2.492 8.411,-5.731 9.864,-7.086 13.418,-9.777 l -0.793,0.144 c -3.086,1.918 -6.48,4.152 -9.492,6.426 7.199,-5.723 -6.531,3.879 -0.125,-1.215 1.934,-1.801 2.403,-1.172 6.082,-3.793 2.563,-1.996 3.449,-2.832 3.379,-2.9961 -0.769,0.4141 -0.906,0.4141 -0.769,0.2191 -1.192,0.547 -3.489,1.867 -5.215,2.797 -3.739,2.566 -5.032,3.003 -10.723,6.992 -0.234,-0.141 5.852,-4.672 -1.492,0.187 4.871,-3.304 9.859,-6.691 14.766,-10.004 -1.79,1.067 -3.379,1.989 -4.661,2.649 l -0.019,0.011 c -0.625,-0.035 -14.082,8.989 -12.61,7.223 -3.816,2.578 -7.168,5.027 -9.668,6.461 5.481,-3.527 10.286,-7.371 13.645,-10.191 -0.105,0.027 -0.176,0.05 -0.281,0.086 -12.473,7.875 -14.809,9.078 -10.879,5.953 -1.289,1.117 0.23,0.527 3.992,-2.024 l 0.613,-1.004 c -2.168,1.153 -4.695,2.586 -8.25,4.848 l 5.594,-4.422 c -2.637,1.488 -4.363,2.305 -5.613,2.735 -0.047,0.031 -0.086,0.058 -0.137,0.085 l 0.051,-0.039 c -3.735,1.27 -2.453,-1.281 -5.766,-0.484 l 4.106,-5.414 1.258,-0.871 c -3.45,1.891 -7.793,4.445 -11.083,6.336 2.5,-1.766 4.415,-3.125 6.024,-4.293 -1.035,-0.195 -0.066,-1.977 -4.895,0.652 -1.902,-0.058 -4.468,-0.179 1.094,-5.418 -1.402,0.723 -2.879,1.485 -4.422,2.246 l 4.668,-2.8 c 1.875,-1.457 2.942,-2.336 1.239,-1.497 -7.774,5.372 -18.512,12.696 -23.125,15.079 4.816,-3.805 -0.458,-1.438 -3.415,-0.262 15.75,-10.758 20.692,-13.277 31.219,-20.215 l 0.906,-0.6797 c -2.71,0.9844 -11.824,7.0587 -13.882,7.6837 l 3.687,-2.414 c -5.437,3.394 -13.484,9.09 -12.234,7.601 l 5.5,-4.117 c -1.66,1 -2.91,1.696 -3.391,1.762 -2.742,1.875 -5.41,3.773 -6.75,4.746 4.008,-3.187 -6.305,3.227 -3.816,1.418 -0.606,0.73 3.816,-2.187 7.605,-4.754 6.684,-5.262 -16.875,10.313 -2.359,-0.336 -0.832,1 -4.817,4.192 3.805,-1.406 2.16,-1.383 4.027,-2.742 5.761,-4.024 -1.636,0.586 -2.332,0.461 -4.734,2.024 3.113,-2.227 4.387,-3.2618 4.746,-3.7227 -1.309,0.7737 -2.949,1.7847 -5.566,3.5317 2.5,-1.676 4.199,-2.8677 5.566,-3.8677 -0.469,-0.0586 -1.895,0.4688 -0.945,-0.5469 -2.969,1.9566 -5.703,3.8436 -4.211,3.1366 l -7.578,4.34 -1.043,0.859 0.613,-1.136 c 5.051,-3.274 0.43,0.672 7.598,-4.348 1.25,-1.109 -2.547,1.074 1.875,-1.8555 -2.344,1.2075 -9.688,5.6755 -14.512,9.0855 -1.895,1.493 2.297,-1.171 -0.852,1.024 -12.84,7.875 8.625,-6.375 2.114,-2.902 l 0.613,-0.372 c 3.469,-2.285 4.59,-3.238 5.43,-3.964 -0.247,0.105 -0.508,0.218 -0.75,0.324 -2.493,1.574 -3.43,2.582 -6.985,4.836 -0.195,-0.141 1.863,-1.84 -0.605,-0.43 -2.129,1.75 -3.645,2.75 -9.922,7.109 -5.684,2.872 14.914,-11.136 13.429,-10.945 -6.496,3.871 -9.445,4.637 -6.542,1.942 4.023,-2.051 -1.665,1.992 2.117,0.214 2.898,-2.043 5.273,-3.543 7.383,-4.882 -0.02,-0.9301 -0.887,-1.2738 -1.004,-2.0902 -0.688,0.2539 -1.621,0.7109 -3.235,1.6562 -16.179,11.094 11.809,-7.0195 -8,6.398 3.156,-2.585 -4.176,1.489 4.199,-4.226 -6.082,4.141 0.215,-1.027 -7.144,3.84 2.957,-1.567 -3.371,2.445 -5.063,3.679 0.207,-0.234 3.723,-3.074 0.539,-0.968 4.817,-3.227 9.622,-6.446 13.36,-8.9535 1.473,-1.3593 -8.203,5.0975 -8.008,4.4725 8.418,-5.3514 5.051,-4.066 8.84,-6.6287 -6.313,4.0037 -15.371,10.4957 -17.238,11.1717 4.187,-2.664 9.023,-5.699 10.089,-6.953 15.133,-10.2265 6.524,-3.082 15.79,-9.4297 1.14,-1.0312 -3.926,1.7344 2.39,-2.4375 -0.008,-0.0078 -0.008,-0.0312 -0.008,-0.0429 l -4.726,2.9062 c 2.051,-1.4883 3.269,-2.4258 4.172,-3.1406 -0.52,0.0547 -1.282,0.3125 -2.063,0.7148 -1.719,0.7891 -5.265,3.8907 -7.019,4.7071 l 8.836,-6.5313 c -0.157,0.0039 -0.235,-0.0508 -0.149,-0.2265 -1.551,0.8593 -3.523,1.9961 -6.082,3.8203 l 0.801,-0.6328 c -0.535,0.3515 -0.906,0.582 -1.289,0.8086 -4.231,2.8086 -8.828,6.0625 -8.582,6.2187 -4.848,2.6446 -7.805,4.9926 -7.989,4.4456 2.098,-1.328 3.973,-2.793 5.68,-4.0354 1.887,-1.8555 -8.847,5.8594 -7.39,4.4924 0.214,-0.25 3.796,-2.559 5.039,-3.6526 l -9.239,5.9296 c 6.004,-4.465 10.996,-7.3358 14.141,-9.1405 -0.066,-0.1446 -0.332,-0.168 -0.637,-0.1563 -1.836,0.9883 -4.488,2.5742 -2.769,1.1953 0.965,-0.625 1.441,-0.9101 1.765,-1.082 -0.527,0.1328 -1.125,0.3242 -1.777,0.5625 -3.23,1.9766 -7.07,4.402 -9.492,5.574 -6.719,4.883 4.035,-2.054 2.312,-0.414 l -11.765,8.18 c 1.035,-0.867 6.953,-5.164 -1.27,0.324 l -4.414,3.313 c -1.672,0.836 7.566,-5.895 0.852,-1.782 l 10.093,-7.347 c 9.692,-6.4574 2.532,-1.063 9.454,-5.4183 0.851,-0.6758 2.05,-1.3359 3.07,-1.9961 -0.703,0.2734 -1.406,0.5469 -2.129,0.8555 1.492,-0.5508 3.355,-1.6993 5.137,-2.8125 3.054,-1.8477 6.218,-3.7696 8.894,-6.0664 -0.019,0 0,-0.0313 -0.019,-0.0391 -0.469,0.0781 -0.828,0.0781 -0.657,-0.3164 -0.476,0.207 -1.265,0.6211 -3.14,1.7812 l -2.082,1.7071 c -0.442,-0.6602 -9.922,5.1601 -10.574,4.7656 -5.461,3.3714 -8.184,5.8554 -9.875,7.0784 -0.618,0.738 7.16,-3.832 -0.411,1.277 -3.269,1.527 0.664,-2.035 -4.382,1.027 0.554,-0.402 1.035,-0.75 1.414,-1.019 l -3.164,1.816 2.109,-1.34 c 0.637,-0.753 3.176,-2.988 -0.852,-0.566 l -4.422,3.32 c -0.82,-0.175 -9.667,4.887 -0.632,-1.582 0.816,-0.996 -6.719,4.106 -9.477,5.43 18.098,-12.59 15.578,-9.184 31.184,-19.5547 -3.164,1.0352 -14.778,7.8087 -19.832,10.3167 -2.114,1.73 -6.946,4.375 -12.2,8.293 5.071,-3.692 -0.632,-0.426 3.985,-3.586 4.844,-2.649 15.808,-9.4534 20.652,-12.4846 0.891,-0.9453 2.004,-1.8086 3.156,-2.6328 -0.711,0.2461 -1.347,0.4257 -1.804,0.4882 -1.086,0.6954 -1.946,1.1915 -2.231,1.2227 -0.808,0.5898 -9.468,6.5895 -3.972,3.1914 -8.196,5.8511 -8.028,4.4651 -18.321,11.6521 1.231,-1.48 5.242,-4.687 14.707,-11.2732 -5.898,3.5042 -11.55,7.9062 -15.34,10.4802 l -12.66,6.856 c 9.055,-6.489 -2.105,-0.231 4.836,-5.766 9.68,-6.07 5.672,-2.867 6.746,-2.965 -1.265,0.735 -2.312,1.207 -4.226,2.696 0.871,-0.239 7.168,-4.231 2.754,-0.926 l 8.222,-5.504 c -1.484,1.762 -12.004,7.676 -12.214,8.695 2.722,-1.293 16.406,-10.57 21.042,-13.3513 2.958,-2.3438 1.055,-1.2579 2.52,-2.6172 -7.988,5.2185 -14.094,8.5975 -8.437,4.1835 -0.848,1.004 4.023,-1.6562 8.64,-5.207 l -5.484,2.2344 c 3.367,-2.0781 2.117,-0.1719 8.433,-4.9687 -1.511,0.7968 -0.214,-0.3204 0.078,-0.75 -0.132,0.0078 -0.269,0.0156 -0.417,0.0234 -0.618,0.293 -1.907,1.0586 -4.7,2.832 -6.55,3.8711 -16.433,11.3669 -20.222,13.5309 2.082,-1.316 -1.477,0.204 -5.684,2.879 2.703,-2.078 9.426,-6.586 7.566,-5.906 -3.796,2.184 -8.242,5.508 -9.675,6.453 10.925,-7.957 -12.012,6.496 1.867,-3.414 -5.18,3.774 -4.277,2.602 -6.399,3.75 7.239,-4.715 13.028,-9.855 20.497,-13.8944 -2.325,1.582 -4.032,2.8284 -6.727,4.4884 0.227,0.14 4.18,-2.25 7.148,-4.2033 4.336,-3.4336 9.871,-7.6133 15.086,-11.375 -5.172,3.1719 -12.808,8.3555 -11.382,6.336 -8.04,4.7695 -17.25,10.2343 -21.211,12.5903 3.992,-3.208 -3.997,1.242 5.242,-5.086 1.699,-0.8442 4.25,-2.3051 7.39,-4.1137 5.469,-4.168 -4.656,2.0273 -10.132,5.4257 3.359,-2.4452 8.867,-6.2499 5.066,-4.082 -9.258,6.348 -12.219,7.91 -16.238,9.961 -5.266,2.363 14.754,-10.9336 3.601,-4.281 l -5.715,4.051 c 0.032,-1.18 1.262,-1.899 6.77,-6.868 l -8.035,5.258 c 7.578,-5.508 -3.137,1.406 0.027,-1.191 2.664,-1.715 6.57,-4.219 9.207,-5.9222 l -1.668,0.4375 c 2.754,-1.7148 10.93,-7.1757 11.145,-7.8164 1.023,-0.6171 2.636,-1.6054 4.453,-2.7382 1.465,-1.0899 2.93,-2.1602 4.109,-3.0547 -0.945,0.5 -1.621,0.789 -1.621,0.6445 1.477,-0.8789 2.664,-1.6445 3.672,-2.3281 0.305,-0.2774 0.559,-0.5352 0.527,-0.6289 -1.621,0.8672 -2.961,1.539 -4.089,2.0547 l -1.157,0.5976 c 0.246,-0.1484 0.285,-0.1953 0.5,-0.332 -1.113,0.4805 -1.933,0.7617 -2.508,0.8633 -6.585,4.2422 -14.375,9.3515 -19.035,12.8125 l 9.485,-6.211 -9.493,7.0004 c -8.214,4.316 5.055,-5.6254 2.743,-5.5941 4.621,-3.5664 15.515,-10.3399 8.386,-6.5078 -2.742,1.7109 -9.879,6.3164 -12.195,8.2929 1.691,-1.6289 16.184,-11.8789 6.719,-6.0547 1.387,-1.0937 7.644,-5.3945 11.133,-7.6328 -0.098,-0.1289 -0.403,-0.125 -1.082,0.1524 2.105,-1.3711 4.441,-2.8242 6.882,-4.3399 0.332,-0.2695 0.633,-0.5117 0.95,-0.7656 -0.09,-0.0078 -0.227,0.0391 -0.325,0.043 -6.464,3.4687 -17.285,10.914 -20.332,11.9062 -2.746,2.1016 -10.097,6.5703 -9.05,6.4922 l 8.828,-5.4453 c -4.407,3.2969 -7.961,4.8164 -12.844,8.6484 1.711,-1.4843 1.57,-1.7382 0.137,-1.0117 3.32,-2.3086 8.308,-5.7812 10.41,-7.2304 -1.477,0.582 -8.801,5.8203 -4.844,2.6406 7.781,-5.3711 5.867,-3.4961 4.656,-2.4102 10.786,-7.1328 10.149,-7.5039 14.504,-10.8164 -0.066,0.0117 -0.129,0.0117 -0.207,0.0313 -6.836,4.5586 -13.457,9.1484 -18.965,12.414 9.946,-6.8437 4.399,-3.9375 9.907,-7.9765 -1.184,0.7773 -2.153,1.3711 -3.086,1.9336 -3.078,1.9336 -5.715,3.6289 -7.895,5.3671 -2.5,1.4297 1.906,-1.8828 4.875,-3.8281 -5.683,3.4766 4.778,-4.5117 -3.867,1.1055 1.348,-0.8984 2.273,-1.5508 3.105,-2.1367 -0.949,0.375 -1.269,0.3164 0.684,-1.336 -7.883,4.8672 2.637,-3.0351 2.883,-3.6797 -0.332,0.1563 -0.527,0.2344 -0.832,0.3711 -0.156,0.0977 -0.11,0.043 -0.344,0.1797 0.07,-0.0312 0.09,-0.0508 0.149,-0.0898 -2.2,1.0078 -3.438,1.3281 -2.083,-0.2539 l 5.469,-4.1914 -7.488,4.0586 c 2.336,-2.1328 6.492,-4.8555 10.43,-7.4766 -0.508,0.1953 -0.996,0.3594 -1.504,0.5703 0.703,-0.2422 1.535,-0.7109 2.351,-1.1523 1.684,-1.1211 3.332,-2.2344 4.719,-3.2461 -0.574,0.3203 -1.934,1.1992 -4.922,3.2812 -0.586,-0.1054 4.512,-3.5429 8.367,-6.2265 0.032,-0.0313 0.102,-0.0782 0.129,-0.1055 -3.84,2.1758 -8.496,5.7305 -14.902,10.0781 -1.902,1.0821 -1.399,0.25 -0.586,-1.1289 l 1.914,-1.0859 c 2.449,-1.7383 3.242,-2.4844 3.856,-3.1563 -0.719,0.3203 -0.934,0.2813 0.531,-0.8945 -0.246,0.1016 -0.481,0.207 -0.571,0.1953 -3.191,2.3789 -6.543,5.0899 -6.199,5.0195 -18.23,12.1524 1.985,-3.2968 -6.133,1.1133 l 1.446,-1.0039 c -6.524,3.8789 1.34,-2.2031 -7.586,3.5742 6.707,-4.9062 5.078,-2.8711 9.246,-5.6093 l -1.484,1.0273 4.5,-2.543 c 0.531,-0.8984 5.351,-4.9257 6.464,-6.4218 -0.64,0.25 -1.265,0.4882 -1.941,0.7578 l -7.324,4.6953 c -4.336,3.7344 4.48,-2.5391 5.398,-2.6914 -12.613,8.4101 -7.793,4.5976 -17.859,10.8476 7.246,-5.7539 7.734,-7.3047 8.586,-8.6914 -1.953,1.8321 -9.121,6.7969 -8.457,5.7032 7.578,-6.0157 8.836,-6.2071 11.773,-7.793 -0.015,-0.0313 -0.086,-0.0078 -0.098,-0.0352 0.208,-0.1054 0.747,-0.4687 1.067,-0.6484 0.43,-0.5586 0.859,-1.1133 0.937,-1.4375 -0.312,0 -0.593,0 -0.898,-0.0039 -0.742,0.5195 -1.484,1.0312 -2.383,1.6719 -2.734,2.4531 -8.144,5.1484 -13.262,9.5 2.09,-2.0938 9.793,-7.9102 4.524,-4.7422 3.094,-2.2578 6.004,-4.3555 9.012,-6.4453 -0.286,-0.0039 -0.567,0.0117 -0.848,0.0117 -6.652,4.1679 -16.953,11.2695 -16.086,9.832 l 2.07,-1.3711 c -8.105,4.418 2.996,-4.9531 -2.082,-2.082 l 8.047,-5.7695 c -0.476,0.082 -1.055,0.2343 -1.558,0.3398 -0.188,0.1445 -0.415,0.3125 -0.547,0.4258 -0.434,0.0781 -0.52,-0.0196 -0.434,-0.2149 -0.762,0.1758 -1.387,0.2618 -2.234,0.4844 0.769,-0.9258 3.855,-3.1211 6.953,-5.2773 -0.293,-0.0743 -0.813,0.0039 -1.531,0.2226 -4.829,3 -10.012,6.336 -8.711,4.4766 16.445,-12.8594 -11.184,4.7812 4.336,-7.1719 -7.075,4.7149 -5.801,3.2031 -5.188,2.0781 l 5.457,-3.4218 c 0.332,-0.6133 0.246,-0.9024 -0.027,-1.0313 -3.035,1.3633 -6.121,2.7266 -7.246,2.6797 -5.442,2.6836 -11.52,5.918 -9.653,2.9297 2.36,-1.7891 4.782,-3.5352 6.34,-4.7852 -0.68,0.0469 -1.426,0.1485 -2.172,0.25 -3.066,1.3789 -4.48,1.5977 -4.695,0.9727 -1.117,0.289 -2.199,0.5547 -3.566,1.0078 0.441,-0.4766 1.609,-1.3789 2.972,-2.3867 0.016,-0.3047 0.36,-0.8438 0.27,-1.086 -3.926,2.5118 -7.324,4.6407 -6.137,3.1563 0.961,-0.7422 1.746,-1.3672 2.441,-1.9141 1.961,-1.6953 2.778,-2.6289 2.418,-2.7812 -2.199,0.8476 -8.554,4.6406 -2.32,-0.3164 l -3.672,2.0273 1.043,-0.7578 c -0.824,0.3516 -0.383,-0.2461 0.008,-0.8516 l 3.637,-2.3359 c -1.168,0.0313 -1.129,-0.9258 -9.778,4.9609 1.106,-0.8789 5.809,-4.125 7.274,-5.4453 -1.094,0.5547 -2.281,1.1719 -3.496,1.8242 -5.133,3.5782 -11.231,7.3829 -10.598,6.2071 5.234,-4.6953 -7.1015,3.1211 0.863,-3.2735 0.379,-0.0586 1.555,-0.5273 3.133,-1.2851 3.356,-2.4961 6.586,-4.8047 6.496,-5.1914 -3.836,2.1211 -6.07,3.1015 -7.211,3.3164 -3.453,1.6836 -5.824,2.5976 -4.168,0.5469 l 3.231,-2.5 c 0.195,-0.3125 0.293,-0.5664 0.012,-0.5469 l -2.883,1.5234 c -0.703,0.4258 -1.297,0.7774 -2.348,1.4571 0.316,-0.254 0.473,-0.3985 0.75,-0.6211 l -0.894,0.4726 c 0.925,-0.875 2.308,-1.875 3.71,-2.8789 1.223,-1.1875 1.165,-1.5078 -0.203,-0.9258 0.067,-0.039 0.133,-0.082 0.192,-0.1211 -0.586,0.1758 -0.524,-0.1992 -0.192,-0.8632 l -4.57,2.6601 5.871,-4.2461 c -0.351,0.1602 -0.605,0.2578 -0.816,0.3047 -0.34,0.3086 -0.684,0.6172 -0.59,0.6055 -10.5001,6.9531 -8.3361,4.8008 -6.1564,2.5312 -0.875,0.5742 -1.8398,1.2227 -3.0312,2.0508 0.5547,-0.4414 2.0429,-1.5 3.5666,-2.6016 0.648,-0.6953 1.031,-1.2031 1.113,-1.5117 -5.2499,3.7461 -11.9492,8.086 -11.1874,6.9141 5.3711,-4.6172 -6.8282,3.3047 1.2187,-3.0352 0.5703,-0.1328 2.832,-1.1758 6.5274,-3.4062 -0.0313,-0.2813 -0.4961,-0.2266 -4.7344,2.4883 6.7226,-4.9024 5.125,-2.836 9.3277,-5.5469 l -1.468,1.0039 0.812,-0.4453 c 1.528,-1.0156 3.094,-2.0586 4.969,-3.4102 0.019,-0.0156 0.019,-0.0195 0.023,-0.0312 -1.058,-0.5703 -11.5661,5.8945 -15.6403,7.6718 -0.414,0.2461 -0.7109,0.4219 -1.1836,0.7071 0.2266,-0.1758 0.3164,-0.2774 0.5352,-0.4492 -1.0235,0.3632 -1.3867,0.25 -0.3867,-0.8633 l 5.4648,-4.1758 -7.3828,4.125 c 0.6641,-0.5938 1.6992,-1.3125 2.5937,-1.9883 -0.6757,0.3789 -1.0859,0.5235 -0.9296,0.2266 7.0859,-5.668 8.6836,-6.1641 11.3203,-7.5 2.848,-1.9531 5.418,-3.793 6.574,-5.1133 -3.781,2.2148 -8.4607,5.7695 -14.8162,10.1328 -1.2656,0.7344 -1.4024,0.5742 -1.1328,0.0195 -1.6016,1.0938 -3.2344,2.2696 -4.8555,3.6719 1.5898,-1.6445 6.4961,-5.4726 6.1602,-5.668 -0.7461,0.6172 -1.2266,1.0508 -1.1055,1.0196 -14.2461,9.5898 -4.957,2.2344 -4.1328,0.7617 -2.918,1.8437 -4.9922,3.0391 -4.6172,2.3555 l 2.0859,-1.3555 c -2.5312,1.3398 -3.1445,1.2969 -3.0664,0.7773 -0.5976,0.3789 -1.2422,0.7852 -2.1719,1.3985 1,-0.7344 1.5157,-1.0703 2.1993,-1.5352 0.1836,-0.5469 0.8593,-1.4258 1.4257,-2.1953 -1.25,0.6914 -2.8984,1.6406 -6.4531,3.8867 7.25,-5.7226 7.8399,-7.2187 8.7344,-8.5703 -1.9727,1.8164 -9.1211,6.7969 -8.418,5.7305 7.1875,-5.6719 8.6719,-6.1914 11.2539,-7.5938 0.875,-0.9297 3.0391,-2.6367 5.75,-5.0781 -1.5195,0.9141 -3.5742,2.293 -6.5742,4.4453 -2.7695,2.4414 -8.0664,5.1914 -13.2265,9.5117 2.1367,-2.0586 9.8398,-7.8671 4.6289,-4.6718 C 83.8672,42.7148 87.7461,39.793 92.5,36.6992 89.418,37.832 70.4102,51.3789 71.6563,49.4883 l 2.0625,-1.3672 c -7.9922,4.4961 3.1679,-4.832 -1.8438,-1.9258 l 9.5898,-6.8984 C 81,39.4063 81.332,38.8867 80.8711,38.9844 c -0.6055,0.3515 -2.2109,1.6094 -3.0156,2.2422 -1.7969,0.3984 1.6914,-1.9688 6.2539,-5.9532 l -0.4258,1.2422 c 2.5273,-1.7226 5.043,-3.6914 5.1484,-3.9375 2.7266,-1.3164 -3.0898,3.5821 1.3399,1.1602 8.0937,-5.8672 9.082,-7.4102 9.25,-8.2774 -3.8125,2.4571 -6.8242,4.2657 -7.7969,4.4102 0.1563,-0.0195 1.4883,-0.7891 3.1445,-1.7852 0.1328,-0.1836 0.8594,-0.8593 1.4024,-1.3945 -0.5938,0.2422 -1.25,0.5352 -1.7344,0.6914 -0.3164,0.2149 -0.4492,0.2735 -0.8594,0.5586 0.2344,-0.1758 0.5196,-0.3633 0.7539,-0.5469 -1.4726,0.4649 -2.1445,0.3203 -1.6015,-0.7734 -3.5664,2.3359 -7.1836,4.7344 -10.8242,7.2773 -1.8243,0.3868 2.3046,-2.3359 1.5468,-2.3945 6.5703,-4.6484 0.9102,-0.207 3.9141,-1.7851 4.3828,-2.6954 8.5859,-6.2227 12.9298,-9.418 -0.207,0.1094 -0.3595,0.168 -0.5626,0.2656 -1.0313,0.625 -1.5469,0.8789 -1.3555,0.625 -3.0664,1.3984 -5.043,2.0508 -5.9023,1.9219 -5.0664,3.4023 -9.293,6.1445 -10.4063,6.3789 0.332,-0.0781 5.3399,-3.2227 10.1875,-6.3789 -0.3008,-0.086 -0.4414,-0.3008 -0.3867,-0.6328 -0.2109,-0.5274 5.5547,-3.3789 6.7969,-4.8907 -15.4688,9.6875 0.4492,-2.7734 -12.7461,5.2813 3.164,-2.5117 4.3554,-3.7773 4.2344,-4.1797 l -1.8516,1.4727 -4.3945,1.4375 c 2.7148,-1.6993 0.0039,0.8007 5.3086,-3.125 -1.7422,0.8593 -7.4922,3.6797 -9.8633,4.8554 1.7773,-1.1328 3.3554,-2.2578 4.7031,-3.2851 l -0.0703,0.0312 0.1797,-0.125 c 1.5312,-1.1718 2.625,-2.1289 3.4453,-2.9218 -3.9102,2.5664 -8.75,5.996 -1.582,0.5273 0.9179,-0.5664 1.6328,-0.9766 2.3828,-1.4141 -0.211,-0.0234 -0.4297,-0.0429 -0.6758,-0.0312 l -0.0195,0.0078 c -3.5079,2.8945 -8.4415,5.6953 -8.7344,6.2148 0.4687,-0.8632 3.2851,-2.9921 6.5742,-5.2851 0,-0.0586 0.1289,-0.207 0.2305,-0.3399 -0.1211,0.0586 -0.2774,0.1329 -0.4297,0.211 l -4.9883,3.9179 -4.1602,1.6016 c 2.6914,-1.7266 -0.0859,0.7227 5.211,-3.1953 -0.0547,0.0312 -0.1875,0.0977 -0.2461,0.1289 -0.7617,0.4883 -1.4883,0.9492 -2.4453,1.582 0.2734,-0.2148 0.8242,-0.6054 1.4453,-1.0547 -2.3086,1.2188 -6.3828,3.379 -8.3125,4.4024 1.2734,-0.8281 2.332,-1.6094 3.4023,-2.3828 -2.1992,1.2812 -3.8398,2.0937 -3.5312,1.4844 0.0625,-0.0469 0.0508,-0.0586 0.1094,-0.1172 -0.0235,0.0429 -0.1524,0.1093 -0.1641,0.1289 0.1758,-0.2617 0.625,-0.6758 1.2031,-1.1719 1.4102,-1.8945 -7.4648,3.4102 -0.4023,-2.2148 1.0508,-0.1368 6.3593,-2.0899 16.0781,-8.9375 -1.832,-1.15239 -22.0352,11.2578 -18.0156,6.1523 l 5.4843,-4.168 -7.7382,3.8867 C 72.9023,12.6172 85.2227,6.28906 88.0078,2.69531 84.0586,4.78516 79.3789,8.33203 72.9023,12.6172 c -1.9765,1.0351 -1.5234,0.1641 -0.7968,-1.2695 l 1.9687,-1.0469 c 5.1836,-3.60158 3.0117,-3.08205 6.9922,-6.2383 -3.5508,2.29297 -9.9805,7.3828 -9.4648,7.3359 -18.5391,11.9414 1.7539,-3.46871 -6.6328,0.7579 l 1.4765,-0.9961 c -6.7109,3.7617 1.1602,-2.31254 -7.9297,3.3515 6.7813,-4.86326 5.2305,-2.7656 9.4766,-5.4492 L 66.5156,10.0703 71.125,7.62891 C 71.6914,6.47266 79.0742,0.449219 77.6914,0.34375 L 67.9258,6.35547 C 63.6133,10.1172 72.5313,3.90625 73.5195,3.80859 60.6875,12.0898 65.5234,8.25391 55.2344,14.3438 62.4648,8.60156 62.8281,6.94531 63.5586,5.47656 61.6602,7.34375 54.3984,12.2461 54.9844,11.0938 66.9961,1.54297 63.3477,6.86328 75.5938,-2.15625 76.1914,-3.30859 75.1055,-4.02344 65.3672,2.83203 62.6875,5.3125 57.0625,7.87109 51.9922,12.2461 54.0234,10.1172 61.7695,4.32813 56.3516,7.40234 60.875,4.15234 64.7617,1.25 69.6406,-1.76953 66.2852,-0.832031 47.0313,12.5586 48.0586,10.5273 l 2.1172,-1.33589 c -8.3672,4.21489 2.6484,-5.21875 -2.582,-2.45313 l 9.707,-6.8359363 C 56.7617,-0.0117188 57.0469,-0.59375 56.5273,-0.527344 55.8906,-0.195313 54.3008,1.07422 53.4961,1.71875 c -2.0313,0.23438 1.5234,-2.078125 5.9922,-6.16406 l -0.2188,1.41015 c 2.586,-1.67968 5.0899,-3.66406 5.1602,-3.94531 2.8984,-1.17187 -2.8359,3.77734 1.8203,1.49219 10.4922,-7.44922 8.9023,-8.09762 8.9688,-9.19142 -12.0938,8.7422 3.0234,-3.0859 -6.2618,2.9024 6.1328,-4.5235 15.0899,-9.9024 16.6016,-10.0586 2.082,-2.1563 1.5234,-2.9375 -3.7422,-0.1563 -7.5,4.3945 -16.4609,9.7852 -25.2187,15.69532 -2.043,0.23047 2.1718,-2.42187 1.2968,-2.57031 6.6446,-4.60161 1.0157,-0.125 4.1758,-1.60161 4.7149,-2.707 9.0078,-6.457 13.5586,-9.7265 -8.9609,5.3906 7.7969,-6.8672 7.3789,-7.9414 -9.1015,5.6758 -24.6367,16.457 -27.1953,16.7695 0.5156,-0.0586 10.1133,-5.7891 15.8242,-9.4531 l -0.3672,-0.2422 10.0743,-6.5938 -1.4688,0.9844 c 5.2422,-2.7695 3.9727,-1.2773 7.625,-2.7617 l 5.6367,-4.4727 c -7.3594,6.0079 8.0903,-3.6601 0.5664,2.6758 1.8946,0.0469 10.3559,-5.2929 19.5509,-12.0703 -6.191,3.711 -5.465,2.2539 -12.492,6.6289 9.203,-6.7851 8.101,-5.5742 17.808,-12.4101 -7.886,4.1797 14.582,-11.7461 -0.203,-2.4414 -4.289,3.75 -3.637,3.4179 -10.215,8.7968 -8.8161,5.1094 -15.8864,8.6328 -15.3551,6.6641 2.4804,-1.1172 3.4844,-1.2031 9.3201,-5.1602 -2.4764,1.0938 -3.7186,0.7032 -5.2381,0.8711 l -9.8437,7.1211 c 10.4375,-8.2617 -7.5,2.5 -3.418,-1.789 l -11.4102,6.4961 1.4258,-0.9805 c 0.7383,-1.4531 -7.1289,4.6211 -9.1055,5.6641 5.3399,-3.875 3.9493,-3.9805 9.3243,-7.0586 1.2382,0.4023 4.9179,-3.0079 10.1484,-5.7891 -8.6484,4.7734 5.5391,-5.2539 7.0547,-7.3359 -4.2031,2.6367 -10.957,5.5781 -17.3672,10.6718 -0.1016,1.0938 11.1953,-6.9922 7.2617,-2.9882 -5.8281,2.0156 -7.7929,4.9609 -19.2539,11.4687 0.6328,-0.332 2.7852,-1.6914 3.7227,-2.6094 l -8.9688,5.3907 c 2.9141,-1.9727 5.1563,-3.586 6.7891,-4.8829 0.8672,-1.7187 -16.3985,10.6172 -5.4414,2.2657 5.3711,-3.0743 6.9062,-3.2539 16.4844,-9.8125 -5.129,2.5156 -20.0821,12.1484 -16.793,8.4726 l -5.582,4.4453 -4.5313,1.336 c 2.7578,-1.6602 0.0508,0.832 5.3945,-3.0625 -1.789,0.8398 -7.6289,3.5625 -10.0703,4.707 7.0235,-4.3594 11.0899,-8.6367 9.2813,-7.8945 -3.5039,3.125 -9.4063,6.25 -9.6953,6.8476 1.0039,-2.0195 14.3554,-10.3711 17.9296,-12.6953 0.168,-0.2812 -0.9023,-0.1562 2.7344,-2.5 -5.1328,4.4336 0.7696,1.3008 8.5821,-3.6992 -1.4336,-0.0508 5.8085,-4.3281 7.4296,-5.6094 L 81,-44.0039 c -3.3711,2.8516 -19.5508,12.0625 -12.2539,9.043 6.3437,-4.0157 9.9492,-5.4883 15.1641,-9.1016 2.5195,-2.1875 1.6601,-2.375 -2.7071,0.5781 12.8399,-8.2851 -2.6718,0.5742 9.2657,-7.8554 -3.3204,1.9648 -6.0782,2.8046 -4.4141,1.125 1.2148,-0.7422 9.2578,-5.9844 4.3476,-1.9532 6.918,-5.1367 5.2422,-4.6679 11.0197,-9.4258 -1.09,1.2032 4.746,-2.7226 7.648,-4.6953 -7.511,4.3946 4.446,-4.0429 -1.582,-0.6523 2.918,-1.9649 8.813,-5.0899 12.078,-6.8203 1.641,-1.2969 -0.343,-0.2422 -0.988,0.1015 4.215,-2.6484 10.121,-5.7812 8.223,-3.9296 0.125,-0.2696 -0.235,-0.5157 -2.492,1.0976 l -3.27,3.6484 c 5.633,-4.4531 10.848,-7.2226 12.535,-7.7226 -10.492,7.4687 -12.035,7.6758 -22.164,15.3633 0.715,0.4687 7.844,-4.1524 5.528,-1.4375 -11.247,7.0117 -25.5317,18.1836 -37.9224,27.5 11.4297,-6.4844 -11.5898,8.6797 1.586,0.6328 l 6.0039,-4.7617 c -1.2344,2.0312 3.6093,0.1836 10.8125,-4.7774 5.031,-1.4062 13.859,-8.3984 26.766,-15.8789 l 9.695,-6.8359 c -4.824,3.8476 3.141,-1.4453 5.074,-2.461 0.481,-0.8984 8.703,-6.7382 4.777,-4.6601 -2.988,1.1523 -16.699,11.1719 -18.308,12.4609 0.152,-2.207 7.09,-7.3515 5.625,-8.2695 0,0 4.109,-2.4024 8.621,-5.6328 l -6.914,3.2304 -0.156,0.3047 c -5.403,3.0625 -18.172,12.1758 -14.524,8.7383 7.567,-6.3281 16.86,-9.5703 29.531,-19.4531 -0.574,-0.7305 -15.195,10.1875 -10.117,5.8008 l 14.946,-9.6289 c 0.23,-0.2344 0.332,-0.3594 0.3,-0.3594 l 1.797,-0.9688 c 0.996,-0.9375 10.324,-7.9961 2.625,-3.2812 11.543,-7.6096 -3.562,4.2109 6.34,-2.0977 -8.223,5.8399 -9.453,7.3321 -12.805,10.1758 l 2.895,-0.0625 c -5.981,4.2383 -3.273,1.7383 -2.961,1.1445 -7.969,5.293 -15.996,11.6485 -14.641,11.7969 4.817,-3.8281 11.094,-6.7187 12.969,-8.5664 9.785,-6.0351 0.442,1.0469 7.024,-2.4492 6.574,-5.3828 6.992,-4.3477 13.925,-9.5117 0.352,0.2422 -5.39,4.9804 1.875,0.0781 -7.589,5.4961 -15.808,11.3359 -23.105,16.2695 -4.609,4.3555 13.269,-9.1484 7.058,-3.5468 l 6.426,-5.0743 c 0.852,0.1758 14.133,-8.9961 13.098,-6.9453 3.738,-2.6172 6.934,-5.1562 9.551,-6.5425 -5.684,3.6519 -10.274,7.9683 -13.282,11.0542 z" />
    </clipPath>
    <linearGradient
       id="linearGradient4519"
       spreadMethod="pad"
       gradientTransform="matrix(478.798,-93.9694,93.9694,478.798,-37.6127,64.4845)"
       gradientUnits="userSpaceOnUse"
       y2="0"
       x2="1"
       y1="0"
       x1="0">
      <stop
         id="stop4515"
         offset="0"
         style="stop-opacity:1;stop-color:#efee0e" />
      <stop
         id="stop4517"
         offset="1"
         style="stop-opacity:1;stop-color:#ed1e24" />
    </linearGradient>
  </defs>
  <sodipodi:namedview
     id="base"
     pagecolor="#ffffff"
     bordercolor="#666666"
     borderopacity="1.0"
     inkscape:pageopacity="0.0"
     inkscape:pageshadow="2"
     inkscape:zoom="0.7"
     inkscape:cx="834.66103"
     inkscape:cy="56.251428"
     inkscape:document-units="mm"
     inkscape:current-layer="g4495"
     showgrid="false"
     inkscape:window-width="1920"
     inkscape:window-height="1017"
     inkscape:window-x="-8"
     inkscape:window-y="-8"
     inkscape:window-maximized="1" />
  <metadata
     id="metadata5">
    <rdf:RDF>
      <cc:Work
         rdf:about="">
        <dc:format>image/svg+xml</dc:format>
        <dc:type
           rdf:resource="http://purl.org/dc/dcmitype/StillImage" />
        <dc:title />
      </cc:Work>
    </rdf:RDF>
  </metadata>
  <g
     inkscape:label="Layer 1"
     inkscape:groupmode="layer"
     id="layer1"
     transform="translate(18.69521,-4.3708358)">
    <g
       transform="matrix(18.011825,0,0,-26.727116,-27.46627,387.78988)"
       inkscape:label="ink_ext_XXXXXX"
       id="g4493">
      <g
         transform="scale(0.1)"
         id="g4495">
        <path
           inkscape:connector-curvature="0"
           id="path4497"
           style="fill:#ffffff;fill-opacity:1;fill-rule:nonzero;stroke:none"
           d="M 250,0 H 0 V 90 H 250 V 0" />
        <path
           inkscape:connector-curvature="0"
           id="path4499"
           style="fill:#ffffff;fill-opacity:1;fill-rule:nonzero;stroke:none"
           d="M 0,0 H 250 V 90 H 0 V 0" />
        <g
           id="g4501"
           transform="matrix(0.55373978,0,0,0.55373978,-20.602418,93.620366)">
          <g
             clip-path="url(#clipPath4507)"
             id="g4503">
            <g
               clip-path="url(#clipPath4513)"
               id="g4509">
              <path
                 inkscape:connector-curvature="0"
                 id="path4521"
                 style="fill:url(#linearGradient4519);fill-opacity:1;fill-rule:nonzero;stroke:none"
                 d="m 53,0 v 1 h -1 v 2 h -1 v 1 h -1 v 1 h -2 v 1 h -1 v 1 h 1 v 1 h -1 v 2 h -1 v 1 h 4 v -1 h 2 V 9 h 2 V 8 h 1 V 7 h 1 v 1 h -1 v 1 h -1 v 1 h -1 v 1 h -1 v 1 h -1 v 1 h 2 v -1 h 3 v -1 h 2 v -1 h 1 V 9 h 1 v 1 h -1 v 1 h -1 v 1 h -2 v 1 h -1 v 2 h 1 v -1 h 2 v -1 h 1 v 1 h -1 v 1 h 2 v -1 h 2 v -1 h 3 v 1 h -1 v 1 h -1 v 2 h 1 v -1 h 2 v -1 h 2 v -1 h 2 v -1 h 1 v 1 h -1 v 1 h -1 v 1 h -1 v 1 h 2 v 2 h 2 v 1 h -1 v 1 h -1 v 1 h -1 v 1 h 2 v 2 h 2 v -1 h 2 v -1 h 4 v 1 h 2 v -1 h 2 v -1 h 2 v 1 h 3 v -1 h 2 v -1 h 1 v 2 h -1 v 1 h -1 v 1 h -2 v 1 h -1 v 1 h -2 v 1 h -2 v 2 h 2 v -1 h 1 v -1 h 2 v -1 h 2 v -1 h 1 v -1 h 2 v -1 h 2 v -1 h 1 v 1 h -1 v 1 h -2 v 1 h -1 v 1 h -2 v 1 h -1 v 1 h -3 v 1 h -1 v 1 h -1 v 1 h -1 v 1 h -1 v 1 h 3 v -1 h 1 v -1 h 2 v -1 h 1 v -1 h 2 v -1 h 1 v -1 h 2 v 1 h -2 v 1 h 2 v 1 h -1 v 1 h -1 v 1 h -1 v -1 h -2 v 1 h -1 v 1 h -2 v 1 h -2 v 1 h -1 v 1 h -2 v 1 h -1 v 1 h -1 v 1 h -1 v 2 h -1 v 1 h -2 v 1 h -1 v 1 h -1 v 1 h -1 v 2 h -1 v 2 h 3 v -1 h 2 v -1 h 1 v 1 h -1 v 1 h -1 v 1 h 2 v -1 h 2 v 1 h -1 v 2 h 1 v -1 h 2 v 1 h 1 v -1 h 1 v -1 h 1 v 1 h 1 v 1 h 4 v 1 h 1 v 1 h 1 v 1 h -1 v 1 h -1 v 2 h 4 v -1 h 2 v -1 h 2 v -1 h 1 v 1 h 1 v -1 h 2 v -1 h 3 v -1 h 1 v 1 h -1 v 1 h -1 v 1 h 1 v 1 h 1 v 1 h 1 v -1 h 2 v 1 h -2 v 1 h -1 v 1 h -1 v 2 h 2 v 1 h 1 v -1 h 2 v -1 h 2 v -1 h 3 v -1 h 2 v -1 h 1 v -1 h 1 v 2 h 3 v 1 h -2 v 2 h 2 v -1 h 1 v 1 h 3 v -1 h 4 v 1 h -2 v 1 h -1 v 3 h 2 v -1 h 3 v -1 h 2 v -1 h 2 v -1 h 2 v 3 h 1 v 1 h 2 v -1 h 1 v 1 h -1 v 1 h -2 v 2 h 3 v -1 h 1 v 1 h 1 v 1 h -1 v 1 h -2 v 1 h -1 v 1 h -1 v 2 h -1 v 2 h 4 v -1 h 2 v -1 h 1 v 1 h -1 v 1 h -1 v 2 h 1 v -1 h 1 v -1 h 1 v 1 h 1 v -1 h 1 v 1 h -1 v 1 h -2 v 1 h 6 v -1 h 1 v -1 h 2 v 1 h -1 v 2 h 3 v -1 h 1 v -1 h 2 v -1 h 1 v 1 h -1 v 1 h -1 v 1 h -1 v 1 h 2 v 2 h -1 v 1 h -1 v 1 h -1 v 3 h 9 v -1 h 1 v 1 h 10 v -1 h 2 v -1 h 1 v -1 h 2 v 1 h -2 v 1 h -1 v 1 h 74 V 0 H 71 V 1 H 70 V 0 Z m 16,7 h 1 v 1 h -1 z m -2,1 h 1 v 1 h -1 z m 16,5 h 1 v 1 h -1 z m -2,1 h 1 v 1 h -1 z m -2,2 v -1 h 1 v 1 h -1 v 1 h -2 v 1 h -2 v 1 h -2 v -1 h 2 v -1 h 2 v -1 z m 15,13 h 1 v 1 H 94 Z M 78,46 h 1 v 1 h -1 z m 30,11 h 1 v 1 h -1 z m 31,4 h 1 v 1 h -1 z m -2,1 h 1 v 1 h -1 z m 28,26 h 1 v 1 h -1 z" />
            </g>
          </g>
        </g>
      </g>
    </g>
  </g>
</svg>
