<?xml version="1.0" encoding="utf-8"?>
<!-- Generator: Adobe Illustrator 21.0.2, SVG Export Plug-In . SVG Version: 6.00 Build 0)  -->
<svg version="1.1" id="Layer_1" xmlns="http://www.w3.org/2000/svg" xmlns:xlink="http://www.w3.org/1999/xlink" x="0px" y="0px"
	 width="2272px" height="1872px" viewBox="0 0 2272 1872" enable-background="new 0 0 2272 1872" xml:space="preserve">
<g>
	<g>
		
			<rect x="551.9" y="713.8" fill="none" stroke="#52575B" stroke-width="14" stroke-linejoin="round" stroke-miterlimit="10" width="269.6" height="498.9"/>
		
			<line fill="none" stroke="#52575B" stroke-width="14" stroke-linejoin="round" stroke-miterlimit="10" x1="551.9" y1="773.3" x2="821.5" y2="773.3"/>
		
			<line fill="none" stroke="#52575B" stroke-width="14" stroke-linejoin="round" stroke-miterlimit="10" x1="551.9" y1="832.8" x2="821.5" y2="832.8"/>
		
			<line fill="none" stroke="#52575B" stroke-width="14" stroke-linejoin="round" stroke-miterlimit="10" x1="551.9" y1="892.3" x2="821.5" y2="892.3"/>
		
			<line fill="none" stroke="#52575B" stroke-width="14" stroke-linejoin="round" stroke-miterlimit="10" x1="551.9" y1="951.9" x2="821.5" y2="951.9"/>
		
			<line fill="none" stroke="#52575B" stroke-width="14" stroke-linejoin="round" stroke-miterlimit="10" x1="551.9" y1="1011.4" x2="821.5" y2="1011.4"/>
		
			<line fill="none" stroke="#52575B" stroke-width="14" stroke-linejoin="round" stroke-miterlimit="10" x1="551.9" y1="1070.9" x2="821.5" y2="1070.9"/>
		<circle fill="#FFD837" cx="763.7" cy="742.9" r="9.4"/>
		<circle fill="#FFD837" cx="786.7" cy="742.9" r="9.4"/>
		<circle fill="#FFD837" cx="763.7" cy="803.6" r="9.4"/>
		<circle fill="#FFD837" cx="786.7" cy="803.6" r="9.4"/>
		<circle fill="#FFD837" cx="763.7" cy="864.3" r="9.4"/>
		<circle fill="#FFD837" cx="786.7" cy="864.3" r="9.4"/>
		<circle fill="#FFD837" cx="763.7" cy="924.9" r="9.4"/>
		<circle fill="#FFD837" cx="786.7" cy="924.9" r="9.4"/>
		<circle fill="#FFD837" cx="763.7" cy="985.6" r="9.4"/>
		<circle fill="#FFD837" cx="786.7" cy="985.6" r="9.4"/>
		<circle fill="#FFD837" cx="763.7" cy="1046.3" r="9.4"/>
		<circle fill="#FFD837" cx="786.7" cy="1046.3" r="9.4"/>
		
			<line fill="none" stroke="#52575B" stroke-width="14" stroke-linejoin="round" stroke-miterlimit="10" x1="732.7" y1="713.8" x2="732.7" y2="1070.9"/>
		
			<line fill="none" stroke="#52575B" stroke-width="14" stroke-linejoin="round" stroke-miterlimit="10" x1="580.7" y1="742.9" x2="628.7" y2="742.9"/>
		
			<line fill="none" stroke="#52575B" stroke-width="14" stroke-linejoin="round" stroke-miterlimit="10" x1="654" y1="742.9" x2="702" y2="742.9"/>
		
			<line fill="none" stroke="#52575B" stroke-width="14" stroke-linejoin="round" stroke-miterlimit="10" x1="580.7" y1="803.6" x2="628.7" y2="803.6"/>
		
			<line fill="none" stroke="#52575B" stroke-width="14" stroke-linejoin="round" stroke-miterlimit="10" x1="654" y1="803.6" x2="702" y2="803.6"/>
		
			<line fill="none" stroke="#52575B" stroke-width="14" stroke-linejoin="round" stroke-miterlimit="10" x1="580.7" y1="864.3" x2="628.7" y2="864.3"/>
		
			<line fill="none" stroke="#52575B" stroke-width="14" stroke-linejoin="round" stroke-miterlimit="10" x1="654" y1="864.3" x2="702" y2="864.3"/>
		
			<line fill="none" stroke="#52575B" stroke-width="14" stroke-linejoin="round" stroke-miterlimit="10" x1="580.7" y1="924.9" x2="628.7" y2="924.9"/>
		
			<line fill="none" stroke="#52575B" stroke-width="14" stroke-linejoin="round" stroke-miterlimit="10" x1="654" y1="924.9" x2="702" y2="924.9"/>
		
			<line fill="none" stroke="#52575B" stroke-width="14" stroke-linejoin="round" stroke-miterlimit="10" x1="580.7" y1="985.6" x2="628.7" y2="985.6"/>
		
			<line fill="none" stroke="#52575B" stroke-width="14" stroke-linejoin="round" stroke-miterlimit="10" x1="654" y1="985.6" x2="702" y2="985.6"/>
		
			<line fill="none" stroke="#52575B" stroke-width="14" stroke-linejoin="round" stroke-miterlimit="10" x1="580.7" y1="1046.3" x2="628.7" y2="1046.3"/>
		
			<line fill="none" stroke="#52575B" stroke-width="14" stroke-linejoin="round" stroke-miterlimit="10" x1="654" y1="1046.3" x2="702" y2="1046.3"/>
	</g>
	<g>
		
			<rect x="865.9" y="713.8" fill="none" stroke="#52575B" stroke-width="14" stroke-linejoin="round" stroke-miterlimit="10" width="269.6" height="498.9"/>
		
			<line fill="none" stroke="#52575B" stroke-width="14" stroke-linejoin="round" stroke-miterlimit="10" x1="865.9" y1="773.3" x2="1135.5" y2="773.3"/>
		
			<line fill="none" stroke="#52575B" stroke-width="14" stroke-linejoin="round" stroke-miterlimit="10" x1="865.9" y1="832.8" x2="1135.5" y2="832.8"/>
		
			<line fill="none" stroke="#52575B" stroke-width="14" stroke-linejoin="round" stroke-miterlimit="10" x1="865.9" y1="892.3" x2="1135.5" y2="892.3"/>
		
			<line fill="none" stroke="#52575B" stroke-width="14" stroke-linejoin="round" stroke-miterlimit="10" x1="865.9" y1="951.9" x2="1135.5" y2="951.9"/>
		
			<line fill="none" stroke="#52575B" stroke-width="14" stroke-linejoin="round" stroke-miterlimit="10" x1="865.9" y1="1011.4" x2="1135.5" y2="1011.4"/>
		
			<line fill="none" stroke="#52575B" stroke-width="14" stroke-linejoin="round" stroke-miterlimit="10" x1="865.9" y1="1070.9" x2="1135.5" y2="1070.9"/>
		<circle fill="#FFD837" cx="1077.7" cy="742.9" r="9.4"/>
		<circle fill="#FFD837" cx="1100.7" cy="742.9" r="9.4"/>
		<circle fill="#FFD837" cx="1077.7" cy="803.6" r="9.4"/>
		<circle fill="#FFD837" cx="1100.7" cy="803.6" r="9.4"/>
		<circle fill="#FFD837" cx="1077.7" cy="864.3" r="9.4"/>
		<circle fill="#FFD837" cx="1100.7" cy="864.3" r="9.4"/>
		<circle fill="#FFD837" cx="1077.7" cy="924.9" r="9.4"/>
		<circle fill="#FFD837" cx="1100.7" cy="924.9" r="9.4"/>
		<circle fill="#FFD837" cx="1077.7" cy="985.6" r="9.4"/>
		<circle fill="#FFD837" cx="1100.7" cy="985.6" r="9.4"/>
		<circle fill="#FFD837" cx="1077.7" cy="1046.3" r="9.4"/>
		<circle fill="#FFD837" cx="1100.7" cy="1046.3" r="9.4"/>
		
			<line fill="none" stroke="#52575B" stroke-width="14" stroke-linejoin="round" stroke-miterlimit="10" x1="1046.7" y1="713.8" x2="1046.7" y2="1070.9"/>
		
			<line fill="none" stroke="#52575B" stroke-width="14" stroke-linejoin="round" stroke-miterlimit="10" x1="894.7" y1="742.9" x2="942.7" y2="742.9"/>
		
			<line fill="none" stroke="#52575B" stroke-width="14" stroke-linejoin="round" stroke-miterlimit="10" x1="968" y1="742.9" x2="1016" y2="742.9"/>
		
			<line fill="none" stroke="#52575B" stroke-width="14" stroke-linejoin="round" stroke-miterlimit="10" x1="894.7" y1="803.6" x2="942.7" y2="803.6"/>
		
			<line fill="none" stroke="#52575B" stroke-width="14" stroke-linejoin="round" stroke-miterlimit="10" x1="968" y1="803.6" x2="1016" y2="803.6"/>
		
			<line fill="none" stroke="#52575B" stroke-width="14" stroke-linejoin="round" stroke-miterlimit="10" x1="894.7" y1="864.3" x2="942.7" y2="864.3"/>
		
			<line fill="none" stroke="#52575B" stroke-width="14" stroke-linejoin="round" stroke-miterlimit="10" x1="968" y1="864.3" x2="1016" y2="864.3"/>
		
			<line fill="none" stroke="#52575B" stroke-width="14" stroke-linejoin="round" stroke-miterlimit="10" x1="894.7" y1="924.9" x2="942.7" y2="924.9"/>
		
			<line fill="none" stroke="#52575B" stroke-width="14" stroke-linejoin="round" stroke-miterlimit="10" x1="968" y1="924.9" x2="1016" y2="924.9"/>
		
			<line fill="none" stroke="#52575B" stroke-width="14" stroke-linejoin="round" stroke-miterlimit="10" x1="894.7" y1="985.6" x2="942.7" y2="985.6"/>
		
			<line fill="none" stroke="#52575B" stroke-width="14" stroke-linejoin="round" stroke-miterlimit="10" x1="968" y1="985.6" x2="1016" y2="985.6"/>
		
			<line fill="none" stroke="#52575B" stroke-width="14" stroke-linejoin="round" stroke-miterlimit="10" x1="894.7" y1="1046.3" x2="942.7" y2="1046.3"/>
		
			<line fill="none" stroke="#52575B" stroke-width="14" stroke-linejoin="round" stroke-miterlimit="10" x1="968" y1="1046.3" x2="1016" y2="1046.3"/>
	</g>
	<g>
		
			<rect x="1179.9" y="713.8" fill="none" stroke="#52575B" stroke-width="14" stroke-linejoin="round" stroke-miterlimit="10" width="269.6" height="498.9"/>
		
			<line fill="none" stroke="#52575B" stroke-width="14" stroke-linejoin="round" stroke-miterlimit="10" x1="1179.9" y1="773.3" x2="1449.5" y2="773.3"/>
		
			<line fill="none" stroke="#52575B" stroke-width="14" stroke-linejoin="round" stroke-miterlimit="10" x1="1179.9" y1="832.8" x2="1449.5" y2="832.8"/>
		
			<line fill="none" stroke="#52575B" stroke-width="14" stroke-linejoin="round" stroke-miterlimit="10" x1="1179.9" y1="892.3" x2="1449.5" y2="892.3"/>
		
			<line fill="none" stroke="#52575B" stroke-width="14" stroke-linejoin="round" stroke-miterlimit="10" x1="1179.9" y1="951.9" x2="1449.5" y2="951.9"/>
		
			<line fill="none" stroke="#52575B" stroke-width="14" stroke-linejoin="round" stroke-miterlimit="10" x1="1179.9" y1="1011.4" x2="1449.5" y2="1011.4"/>
		
			<line fill="none" stroke="#52575B" stroke-width="14" stroke-linejoin="round" stroke-miterlimit="10" x1="1179.9" y1="1070.9" x2="1449.5" y2="1070.9"/>
		<circle fill="#FFD837" cx="1391.7" cy="742.9" r="9.4"/>
		<circle fill="#FFD837" cx="1414.7" cy="742.9" r="9.4"/>
		<circle fill="#FFD837" cx="1391.7" cy="803.6" r="9.4"/>
		<circle fill="#FFD837" cx="1414.7" cy="803.6" r="9.4"/>
		<circle fill="#FFD837" cx="1391.7" cy="864.3" r="9.4"/>
		<circle fill="#FFD837" cx="1414.7" cy="864.3" r="9.4"/>
		<circle fill="#FFD837" cx="1391.7" cy="924.9" r="9.4"/>
		<circle fill="#FFD837" cx="1414.7" cy="924.9" r="9.4"/>
		<circle fill="#FFD837" cx="1391.7" cy="985.6" r="9.4"/>
		<circle fill="#FFD837" cx="1414.7" cy="985.6" r="9.4"/>
		<circle fill="#FFD837" cx="1391.7" cy="1046.3" r="9.4"/>
		<circle fill="#FFD837" cx="1414.7" cy="1046.3" r="9.4"/>
		
			<line fill="none" stroke="#52575B" stroke-width="14" stroke-linejoin="round" stroke-miterlimit="10" x1="1360.7" y1="713.8" x2="1360.7" y2="1070.9"/>
		
			<line fill="none" stroke="#52575B" stroke-width="14" stroke-linejoin="round" stroke-miterlimit="10" x1="1208.7" y1="742.9" x2="1256.7" y2="742.9"/>
		
			<line fill="none" stroke="#52575B" stroke-width="14" stroke-linejoin="round" stroke-miterlimit="10" x1="1282" y1="742.9" x2="1330" y2="742.9"/>
		
			<line fill="none" stroke="#52575B" stroke-width="14" stroke-linejoin="round" stroke-miterlimit="10" x1="1208.7" y1="803.6" x2="1256.7" y2="803.6"/>
		
			<line fill="none" stroke="#52575B" stroke-width="14" stroke-linejoin="round" stroke-miterlimit="10" x1="1282" y1="803.6" x2="1330" y2="803.6"/>
		
			<line fill="none" stroke="#52575B" stroke-width="14" stroke-linejoin="round" stroke-miterlimit="10" x1="1208.7" y1="864.3" x2="1256.7" y2="864.3"/>
		
			<line fill="none" stroke="#52575B" stroke-width="14" stroke-linejoin="round" stroke-miterlimit="10" x1="1282" y1="864.3" x2="1330" y2="864.3"/>
		
			<line fill="none" stroke="#52575B" stroke-width="14" stroke-linejoin="round" stroke-miterlimit="10" x1="1208.7" y1="924.9" x2="1256.7" y2="924.9"/>
		
			<line fill="none" stroke="#52575B" stroke-width="14" stroke-linejoin="round" stroke-miterlimit="10" x1="1282" y1="924.9" x2="1330" y2="924.9"/>
		
			<line fill="none" stroke="#52575B" stroke-width="14" stroke-linejoin="round" stroke-miterlimit="10" x1="1208.7" y1="985.6" x2="1256.7" y2="985.6"/>
		
			<line fill="none" stroke="#52575B" stroke-width="14" stroke-linejoin="round" stroke-miterlimit="10" x1="1282" y1="985.6" x2="1330" y2="985.6"/>
		
			<line fill="none" stroke="#52575B" stroke-width="14" stroke-linejoin="round" stroke-miterlimit="10" x1="1208.7" y1="1046.3" x2="1256.7" y2="1046.3"/>
		
			<line fill="none" stroke="#52575B" stroke-width="14" stroke-linejoin="round" stroke-miterlimit="10" x1="1282" y1="1046.3" x2="1330" y2="1046.3"/>
	</g>
	<g>
		
			<rect x="1493.9" y="713.8" fill="none" stroke="#52575B" stroke-width="14" stroke-linejoin="round" stroke-miterlimit="10" width="269.6" height="498.9"/>
		
			<line fill="none" stroke="#52575B" stroke-width="14" stroke-linejoin="round" stroke-miterlimit="10" x1="1493.9" y1="773.3" x2="1763.5" y2="773.3"/>
		
			<line fill="none" stroke="#52575B" stroke-width="14" stroke-linejoin="round" stroke-miterlimit="10" x1="1493.9" y1="832.8" x2="1763.5" y2="832.8"/>
		
			<line fill="none" stroke="#52575B" stroke-width="14" stroke-linejoin="round" stroke-miterlimit="10" x1="1493.9" y1="892.3" x2="1763.5" y2="892.3"/>
		
			<line fill="none" stroke="#52575B" stroke-width="14" stroke-linejoin="round" stroke-miterlimit="10" x1="1493.9" y1="951.9" x2="1763.5" y2="951.9"/>
		
			<line fill="none" stroke="#52575B" stroke-width="14" stroke-linejoin="round" stroke-miterlimit="10" x1="1493.9" y1="1011.4" x2="1763.5" y2="1011.4"/>
		
			<line fill="none" stroke="#52575B" stroke-width="14" stroke-linejoin="round" stroke-miterlimit="10" x1="1493.9" y1="1070.9" x2="1763.5" y2="1070.9"/>
		<circle fill="#FFD837" cx="1705.7" cy="742.9" r="9.4"/>
		<circle fill="#FFD837" cx="1728.7" cy="742.9" r="9.4"/>
		<circle fill="#FFD837" cx="1705.7" cy="803.6" r="9.4"/>
		<circle fill="#FFD837" cx="1728.7" cy="803.6" r="9.4"/>
		<circle fill="#FFD837" cx="1705.7" cy="864.3" r="9.4"/>
		<circle fill="#FFD837" cx="1728.7" cy="864.3" r="9.4"/>
		<circle fill="#FFD837" cx="1705.7" cy="924.9" r="9.4"/>
		<circle fill="#FFD837" cx="1728.7" cy="924.9" r="9.4"/>
		<circle fill="#FFD837" cx="1705.7" cy="985.6" r="9.4"/>
		<circle fill="#FFD837" cx="1728.7" cy="985.6" r="9.4"/>
		<circle fill="#FFD837" cx="1705.7" cy="1046.3" r="9.4"/>
		<circle fill="#FFD837" cx="1728.7" cy="1046.3" r="9.4"/>
		
			<line fill="none" stroke="#52575B" stroke-width="14" stroke-linejoin="round" stroke-miterlimit="10" x1="1674.7" y1="713.8" x2="1674.7" y2="1070.9"/>
		
			<line fill="none" stroke="#52575B" stroke-width="14" stroke-linejoin="round" stroke-miterlimit="10" x1="1522.7" y1="742.9" x2="1570.7" y2="742.9"/>
		
			<line fill="none" stroke="#52575B" stroke-width="14" stroke-linejoin="round" stroke-miterlimit="10" x1="1596" y1="742.9" x2="1644" y2="742.9"/>
		
			<line fill="none" stroke="#52575B" stroke-width="14" stroke-linejoin="round" stroke-miterlimit="10" x1="1522.7" y1="803.6" x2="1570.7" y2="803.6"/>
		
			<line fill="none" stroke="#52575B" stroke-width="14" stroke-linejoin="round" stroke-miterlimit="10" x1="1596" y1="803.6" x2="1644" y2="803.6"/>
		
			<line fill="none" stroke="#52575B" stroke-width="14" stroke-linejoin="round" stroke-miterlimit="10" x1="1522.7" y1="864.3" x2="1570.7" y2="864.3"/>
		
			<line fill="none" stroke="#52575B" stroke-width="14" stroke-linejoin="round" stroke-miterlimit="10" x1="1596" y1="864.3" x2="1644" y2="864.3"/>
		
			<line fill="none" stroke="#52575B" stroke-width="14" stroke-linejoin="round" stroke-miterlimit="10" x1="1522.7" y1="924.9" x2="1570.7" y2="924.9"/>
		
			<line fill="none" stroke="#52575B" stroke-width="14" stroke-linejoin="round" stroke-miterlimit="10" x1="1596" y1="924.9" x2="1644" y2="924.9"/>
		
			<line fill="none" stroke="#52575B" stroke-width="14" stroke-linejoin="round" stroke-miterlimit="10" x1="1522.7" y1="985.6" x2="1570.7" y2="985.6"/>
		
			<line fill="none" stroke="#52575B" stroke-width="14" stroke-linejoin="round" stroke-miterlimit="10" x1="1596" y1="985.6" x2="1644" y2="985.6"/>
		
			<line fill="none" stroke="#52575B" stroke-width="14" stroke-linejoin="round" stroke-miterlimit="10" x1="1522.7" y1="1046.3" x2="1570.7" y2="1046.3"/>
		
			<line fill="none" stroke="#52575B" stroke-width="14" stroke-linejoin="round" stroke-miterlimit="10" x1="1596" y1="1046.3" x2="1644" y2="1046.3"/>
	</g>
	
		<line fill="none" stroke="#52575B" stroke-width="14" stroke-linejoin="round" stroke-miterlimit="10" x1="450.1" y1="1212.7" x2="1845.2" y2="1212.7"/>
	<polyline fill="none" stroke="#52575B" stroke-width="14" stroke-linejoin="round" stroke-miterlimit="10" points="821.5,1140.9 
		843.4,1140.9 843.4,848.4 865.9,848.4 	"/>
	<polyline fill="none" stroke="#52575B" stroke-width="14" stroke-linejoin="round" stroke-miterlimit="10" points="1135.5,742.9 
		1156.9,742.9 1156.9,1046.3 1179.9,1046.3 	"/>
	<polyline fill="none" stroke="#52575B" stroke-width="14" stroke-linejoin="round" stroke-miterlimit="10" points="1449.5,864.3 
		1471.9,864.3 1471.9,742.9 1493.9,742.9 	"/>
	<polyline fill="none" stroke="#52575B" stroke-width="14" stroke-linejoin="round" stroke-miterlimit="10" points="1471.9,864.3 
		1471.9,985.6 1493.9,985.6 	"/>
	<polyline fill="none" stroke="#52575B" stroke-width="14" stroke-linejoin="round" stroke-miterlimit="10" points="1282,713.8 
		1282,488.2 1493.9,276.3 1620,276.3 	"/>
	<polyline fill="none" stroke="#52575B" stroke-width="14" stroke-linejoin="round" stroke-miterlimit="10" points="1306,713.8 
		1306,495 1501.7,299.3 1620,299.3 	"/>
	<polyline fill="none" stroke="#52575B" stroke-width="14" stroke-linejoin="round" stroke-miterlimit="10" points="1330,713.8 
		1330,506.5 1416.5,420 1620,420 1620,713.8 	"/>
	<polyline fill="none" stroke="#52575B" stroke-width="14" stroke-linejoin="round" stroke-miterlimit="10" points="1644,713.8 
		1644,518.2 1800.7,518.2 1928.7,646.2 	"/>
	<polyline fill="none" stroke="#52575B" stroke-width="14" stroke-linejoin="round" stroke-miterlimit="10" points="1763.5,873.7 
		2072.7,873.7 2072.7,794.2 	"/>
	<polyline fill="none" stroke="#52575B" stroke-width="14" stroke-linejoin="round" stroke-miterlimit="10" points="1763.5,915.6 
		2072.7,915.6 2072.7,1046.3 	"/>
	<polyline fill="none" stroke="#52575B" stroke-width="14" stroke-linejoin="round" stroke-miterlimit="10" points="1763.5,934.3 
		2048.7,934.3 2048.7,1628.7 1894.7,1628.7 	"/>
	<polyline fill="none" stroke="#52575B" stroke-width="14" stroke-linejoin="round" stroke-miterlimit="10" points="1087,713.8 
		1087,624.2 942.7,624.2 725.5,407 725.5,270.3 	"/>
	<polyline fill="none" stroke="#52575B" stroke-width="14" stroke-linejoin="round" stroke-miterlimit="10" points="746.7,270.3 
		746.7,402.2 946.7,602.2 1110,602.2 1110,713.8 	"/>
	
		<line fill="none" stroke="#52575B" stroke-width="14" stroke-linejoin="round" stroke-miterlimit="10" x1="946.7" y1="602.2" x2="946.7" y2="440.2"/>
	<polyline fill="none" stroke="#52575B" stroke-width="14" stroke-linejoin="round" stroke-miterlimit="10" points="686.7,713.8 
		686.7,566.9 554.2,434.4 	"/>
	<polyline fill="none" stroke="#52575B" stroke-width="14" stroke-linejoin="round" stroke-miterlimit="10" points="664.7,713.8 
		664.7,584.2 539.5,459.1 370.7,459.1 	"/>
	<polyline fill="none" stroke="#52575B" stroke-width="14" stroke-linejoin="round" stroke-miterlimit="10" points="640.7,713.8 
		640.7,602.2 554.2,602.2 554.2,658 488.7,658 488.7,518.2 370.7,518.2 	"/>
	<polyline fill="none" stroke="#52575B" stroke-width="14" stroke-linejoin="round" stroke-miterlimit="10" points="551.9,864.3 
		450.1,864.3 323,737.2 204.7,737.2 	"/>
	<polyline fill="none" stroke="#52575B" stroke-width="14" stroke-linejoin="round" stroke-miterlimit="10" points="551.9,884.2 
		428.7,884.2 311.7,767.2 287.3,767.2 	"/>
	<polyline fill="none" stroke="#52575B" stroke-width="14" stroke-linejoin="round" stroke-miterlimit="10" points="551.9,908.2 
		420.7,908.2 292.7,1036.9 204.7,1036.9 204.7,1633.5 350.7,1633.5 	"/>
	
		<circle fill="none" stroke="#52575B" stroke-width="14" stroke-linejoin="round" stroke-miterlimit="10" cx="1728.7" cy="285.9" r="113.4"/>
	<polygon fill="#FFD837" stroke="#52575B" stroke-width="8" stroke-linejoin="round" stroke-miterlimit="10" points="1787.3,335.5 
		1670,335.5 1670,255.5 1738.3,255.5 1758,242.5 1787.3,242.5 	"/>
	<path fill="none" stroke="#52575B" stroke-width="14" stroke-linejoin="round" stroke-miterlimit="10" d="M1324.1,1576.2h-316.2
		c-8.8,0-15.9-7.1-15.9-15.9v-196.3c0-8.8,7.1-15.9,15.9-15.9h316.2c8.8,0,15.9,7.1,15.9,15.9v196.3
		C1340,1569.1,1332.9,1576.2,1324.1,1576.2z"/>
	<polygon fill="none" stroke="#52575B" stroke-width="14" stroke-linejoin="round" stroke-miterlimit="10" points="1204,1609.5 
		1204,1576.2 1171.3,1576.2 1138.7,1576.2 1138.7,1609.5 1114.7,1633.5 1171.3,1633.5 1228,1633.5 	"/>
	
		<line fill="none" stroke="#52575B" stroke-width="14" stroke-linejoin="round" stroke-miterlimit="10" x1="992" y1="1534.2" x2="1340" y2="1534.2"/>
	<polyline fill="none" stroke="#52575B" stroke-width="14" stroke-linejoin="round" stroke-miterlimit="10" points="992,1495.8 
		918.7,1495.8 918.7,1212.7 	"/>
	<polyline fill="none" stroke="#52575B" stroke-width="14" stroke-linejoin="round" stroke-miterlimit="10" points="992,1470.3 
		686.7,1470.3 686.7,1212.7 	"/>
	<polyline fill="none" stroke="#52575B" stroke-width="14" stroke-linejoin="round" stroke-miterlimit="10" points="1340,1456.8 
		1431.2,1456.8 1431.2,1300.8 1314.7,1300.8 1314.7,1212.7 	"/>
	<polyline fill="none" stroke="#52575B" stroke-width="14" stroke-linejoin="round" stroke-miterlimit="10" points="1340,1506.3 
		1628.7,1506.3 1628.7,1212.7 	"/>
	
		<line fill="none" stroke="#FFD837" stroke-width="8" stroke-linejoin="round" stroke-miterlimit="10" x1="1017.3" y1="1375.5" x2="1164" y2="1375.5"/>
	
		<line fill="none" stroke="#FFD837" stroke-width="8" stroke-linejoin="round" stroke-miterlimit="10" x1="1017.3" y1="1399.5" x2="1126.7" y2="1399.5"/>
	
		<line fill="none" stroke="#FFD837" stroke-width="8" stroke-linejoin="round" stroke-miterlimit="10" x1="1017.3" y1="1423.5" x2="1140" y2="1423.5"/>
	
		<line fill="none" stroke="#FFD837" stroke-width="8" stroke-linejoin="round" stroke-miterlimit="10" x1="1017.3" y1="1447.5" x2="1156.7" y2="1447.5"/>
	
		<line fill="none" stroke="#FFD837" stroke-width="8" stroke-linejoin="round" stroke-miterlimit="10" x1="1017.3" y1="1471.5" x2="1179.9" y2="1471.5"/>
	
		<line fill="none" stroke="#FFD837" stroke-width="8" stroke-linejoin="round" stroke-miterlimit="10" x1="1017.3" y1="1495.5" x2="1126.7" y2="1495.5"/>
	
		<circle fill="none" stroke="#52575B" stroke-width="14" stroke-linejoin="round" stroke-miterlimit="10" cx="1262.3" cy="1441.2" r="54.3"/>
	<path fill="#FFD837" stroke="#52575B" stroke-width="10" stroke-linejoin="round" stroke-miterlimit="10" d="M1262.3,1386.9v54.3
		l41.4-35.2C1303.7,1406,1292,1386.2,1262.3,1386.9z"/>
	
		<circle fill="none" stroke="#52575B" stroke-width="14" stroke-linejoin="round" stroke-miterlimit="10" cx="946.7" cy="357.1" r="86.8"/>
	
		<circle fill="none" stroke="#52575B" stroke-width="14" stroke-linejoin="round" stroke-miterlimit="10" cx="732.7" cy="183.5" r="86.8"/>
	<g>
		<path fill="none" stroke="#52575B" stroke-width="8" stroke-linejoin="round" stroke-miterlimit="10" d="M971.3,1354.2
			c0-6.5,2.5-13.1,7.5-18c5-5,11.5-7.5,18-7.5"/>
		<path fill="none" stroke="#52575B" stroke-width="8" stroke-linejoin="round" stroke-miterlimit="10" d="M954.9,1354.2
			c0-10.7,4.1-21.5,12.3-29.6s18.9-12.3,29.6-12.3"/>
		<path fill="none" stroke="#52575B" stroke-width="8" stroke-linejoin="round" stroke-miterlimit="10" d="M939.2,1354.2
			c0-14.8,5.6-29.5,16.9-40.8c11.3-11.3,26-16.9,40.8-16.9"/>
	</g>
	<path fill="#FFD837" stroke="#52575B" stroke-width="8" stroke-linejoin="round" stroke-miterlimit="10" d="M981.4,354.8
		c1.9-3.2,3.1-6.9,3.1-10.9c0-11.5-9.3-20.8-20.8-20.8c-11,0-19.9,8.5-20.7,19.3c-2.7-2.2-6.1-3.5-9.8-3.5
		c-8.7,0-15.8,7.1-15.8,15.8c0,0.2,0,0.4,0,0.6c-1.3-0.4-2.8-0.6-4.2-0.6c-8.7,0-15.8,7.1-15.8,15.8s7.1,15.8,15.8,15.8h66.9
		c8.7,0,15.8-7.1,15.8-15.8C995.9,362.2,989.5,355.4,981.4,354.8z"/>
	
		<circle fill="none" stroke="#52575B" stroke-width="14" stroke-linejoin="round" stroke-miterlimit="10" cx="246.2" cy="495" r="124.5"/>
	
		<rect x="226.7" y="411.5" fill="#FFD837" stroke="#52575B" stroke-width="8" stroke-linejoin="round" stroke-miterlimit="10" width="38" height="38"/>
	
		<rect x="174" y="514.2" fill="#FFD837" stroke="#52575B" stroke-width="8" stroke-linejoin="round" stroke-miterlimit="10" width="38" height="38"/>
	
		<rect x="226.7" y="514.2" fill="#FFD837" stroke="#52575B" stroke-width="8" stroke-linejoin="round" stroke-miterlimit="10" width="38" height="38"/>
	
		<rect x="279.3" y="514.2" fill="#FFD837" stroke="#52575B" stroke-width="8" stroke-linejoin="round" stroke-miterlimit="10" width="38" height="38"/>
	
		<line fill="none" stroke="#52575B" stroke-width="8" stroke-linejoin="round" stroke-miterlimit="10" x1="245.7" y1="449.5" x2="245.7" y2="514.2"/>
	<polyline fill="none" stroke="#52575B" stroke-width="8" stroke-linejoin="round" stroke-miterlimit="10" points="193,514.2 
		193,484.2 298.3,484.2 298.3,514.2 	"/>
	
		<circle fill="none" stroke="#52575B" stroke-width="14" stroke-linejoin="round" stroke-miterlimit="10" cx="2034.2" cy="687.5" r="116.1"/>
	<g>
		<polygon fill="#FFD837" stroke="#52575B" stroke-width="6" stroke-linejoin="round" stroke-miterlimit="10" points="2059.6,725.9 
			2068.1,617.9 2076.6,725.9 		"/>
		
			<rect x="1958" y="692.2" fill="#FFD837" stroke="#52575B" stroke-width="8" stroke-linejoin="round" stroke-miterlimit="10" width="143.2" height="44.7"/>
		
			<rect x="1958" y="714.9" fill="#FFD837" stroke="#52575B" stroke-width="8" stroke-linejoin="round" stroke-miterlimit="10" width="70.5" height="22"/>
		<circle fill="#52575B" cx="2055.1" cy="716.9" r="6.5"/>
		<circle fill="#52575B" cx="2079.1" cy="716.9" r="6.5"/>
		
			<circle fill="#FFD837" stroke="#52575B" stroke-width="8" stroke-linejoin="round" stroke-miterlimit="10" cx="2068.1" cy="620.6" r="9.7"/>
	</g>
	
		<rect x="350.2" y="1548.2" fill="none" stroke="#52575B" stroke-width="14" stroke-linejoin="round" stroke-miterlimit="10" width="253.5" height="161.1"/>
	<polygon fill="none" stroke="#52575B" stroke-width="14" stroke-linejoin="round" stroke-miterlimit="10" points="670.4,1753.5 
		287.3,1753.5 354,1709.3 603.7,1709.3 	"/>
	<g>
		<g>
			<polyline fill="none" stroke="#FFD837" stroke-width="8" stroke-linejoin="round" points="393.7,1667.2 431.2,1637.7 
				450.7,1657.2 505.2,1613.7 518.2,1628.7 551.3,1604.1 			"/>
			<g>
				<polygon fill="#FFD837" points="555.5,1615.4 564.7,1594.2 541.7,1596.9 				"/>
			</g>
		</g>
	</g>
	
		<line fill="none" stroke="#FFD837" stroke-width="8" stroke-linejoin="round" stroke-miterlimit="10" x1="513.2" y1="1687.7" x2="513.2" y2="1667.2"/>
	
		<line fill="none" stroke="#FFD837" stroke-width="8" stroke-linejoin="round" stroke-miterlimit="10" x1="554.2" y1="1687.7" x2="554.2" y2="1667.2"/>
	
		<line fill="none" stroke="#FFD837" stroke-width="8" stroke-linejoin="round" stroke-miterlimit="10" x1="526.2" y1="1687.7" x2="526.2" y2="1656.7"/>
	
		<line fill="none" stroke="#FFD837" stroke-width="8" stroke-linejoin="round" stroke-miterlimit="10" x1="539.2" y1="1687.7" x2="539.2" y2="1645.2"/>
	<path fill="none" stroke="#52575B" stroke-width="14" stroke-linejoin="round" stroke-miterlimit="10" d="M1878,1703.2h-55.7
		c-9.7,0-17.6-7.9-17.6-17.6v-111.7c0-9.7,7.9-17.6,17.6-17.6h55.7c9.7,0,17.6,7.9,17.6,17.6v111.7
		C1895.7,1695.3,1887.8,1703.2,1878,1703.2z"/>
	
		<line fill="none" stroke="#52575B" stroke-width="14" stroke-linejoin="round" stroke-miterlimit="10" x1="1804.7" y1="1665.5" x2="1895.7" y2="1665.5"/>
	<circle fill="#52575B" cx="1850.2" cy="1686.2" r="9"/>
	<path fill="none" stroke="#52575B" stroke-width="14" stroke-linejoin="round" stroke-miterlimit="10" d="M1763.5,1140.9h132.2
		c0,0,10.1,321.4,0,321.4c-10.1,0-190,0-190,0v291.3h-256.2"/>
	<polyline fill="none" stroke="#52575B" stroke-width="14" stroke-linejoin="round" stroke-miterlimit="10" points="551.9,1140.9 
		370.7,1140.9 370.7,1414 513.2,1414 513.2,1359.5 	"/>
	<polyline fill="none" stroke="#52575B" stroke-width="8" stroke-linejoin="round" stroke-miterlimit="10" points="701.5,157.5 
		677.9,181.2 701.9,205.2 	"/>
	<polyline fill="none" stroke="#52575B" stroke-width="8" stroke-linejoin="round" stroke-miterlimit="10" points="763.8,157.5 
		787.4,181.2 763.4,205.2 	"/>
	
		<line fill="none" stroke="#52575B" stroke-width="8" stroke-linejoin="round" stroke-miterlimit="10" x1="749" y1="142.5" x2="708.5" y2="225.5"/>
	
		<circle fill="none" stroke="#52575B" stroke-width="14" stroke-linejoin="round" stroke-miterlimit="10" cx="513.2" cy="1339" r="21.8"/>
	
		<circle fill="none" stroke="#52575B" stroke-width="14" stroke-linejoin="round" stroke-miterlimit="10" cx="1427.7" cy="1753.5" r="21.8"/>
	
		<circle fill="none" stroke="#52575B" stroke-width="14" stroke-linejoin="round" stroke-miterlimit="10" cx="548.1" cy="420" r="21.8"/>
	
		<circle fill="none" stroke="#52575B" stroke-width="14" stroke-linejoin="round" stroke-miterlimit="10" cx="190.9" cy="733.6" r="21.8"/>
</g>
</svg>
